<svg id="svg" version="1.1" xmlns="http://www.w3.org/2000/svg" xmlns:xlink="http://www.w3.org/1999/xlink" width="400" height="87.27770177838578" viewBox="0, 0, 400,87.27770177838578"><g id="svgg"><path id="path0" d="M360.375 17.752 C 359.710 17.964,359.167 18.104,359.167 18.063 C 359.167 18.022,359.017 18.069,358.833 18.167 C 358.593 18.295,358.499 18.518,358.497 18.964 C 358.490 20.555,356.879 24.936,355.907 26.011 C 355.693 26.247,355.701 26.313,355.980 26.566 C 357.024 27.510,359.407 24.849,361.760 20.109 C 363.271 17.065,363.154 16.865,360.375 17.752 M184.133 18.350 C 183.427 18.423,182.527 18.574,182.133 18.686 C 181.739 18.798,181.318 18.908,181.197 18.932 C 180.745 19.018,178.741 19.870,178.500 20.078 C 178.362 20.196,178.025 20.409,177.750 20.550 C 176.401 21.243,173.863 24.235,173.551 25.500 C 173.495 25.729,173.382 25.961,173.300 26.015 C 172.772 26.362,172.243 31.541,172.535 33.500 C 173.122 37.431,175.136 40.869,177.667 42.262 C 177.987 42.439,178.287 42.630,178.333 42.687 C 178.379 42.744,178.792 42.953,179.250 43.151 C 179.708 43.349,180.206 43.579,180.355 43.662 C 181.970 44.552,187.441 44.614,190.083 43.771 C 191.059 43.460,193.666 42.141,193.666 41.958 C 193.667 41.890,193.780 41.833,193.919 41.833 C 194.329 41.833,196.872 39.168,197.498 38.083 C 198.568 36.229,198.989 35.094,199.449 32.833 C 200.027 29.988,199.097 25.069,197.635 23.233 C 196.818 22.208,195.209 20.645,194.740 20.423 C 194.433 20.277,194.139 20.090,194.087 20.006 C 193.441 18.961,187.604 17.989,184.133 18.350 M297.196 19.032 C 297.020 19.427,296.723 20.162,296.535 20.667 C 296.348 21.171,296.001 22.015,295.766 22.542 C 295.530 23.069,295.379 23.500,295.431 23.500 C 295.482 23.500,295.406 23.618,295.262 23.762 C 295.118 23.906,294.951 24.224,294.890 24.470 C 294.830 24.716,294.492 25.531,294.140 26.281 C 293.788 27.032,293.500 27.686,293.500 27.735 C 293.500 27.861,292.712 29.655,292.395 30.250 C 292.249 30.525,291.756 31.613,291.300 32.667 C 290.843 33.721,290.281 34.996,290.050 35.500 C 289.819 36.004,289.514 36.679,289.372 37.000 C 288.275 39.476,286.981 41.973,286.649 42.254 C 286.154 42.673,286.177 42.667,285.167 42.667 L 284.333 42.667 284.333 43.375 L 284.333 44.083 288.583 44.083 L 292.833 44.083 292.833 43.375 L 292.833 42.667 292.000 42.646 C 289.938 42.594,289.767 42.501,289.887 41.491 C 289.939 41.047,290.174 40.266,290.408 39.754 C 290.642 39.242,290.833 38.769,290.832 38.703 C 290.832 38.637,291.145 37.890,291.529 37.042 L 292.227 35.500 297.363 35.500 C 301.618 35.500,302.500 35.539,302.500 35.730 C 302.500 35.856,302.676 36.363,302.890 36.855 C 303.378 37.974,303.614 38.548,303.649 38.706 C 303.664 38.774,303.830 39.186,304.018 39.623 C 305.248 42.488,305.209 42.628,303.167 42.700 L 301.750 42.750 301.701 43.417 L 301.652 44.083 306.583 44.083 L 311.515 44.083 311.466 43.417 C 311.419 42.786,311.385 42.747,310.833 42.702 C 309.728 42.612,308.383 41.438,308.236 40.436 C 308.202 40.208,307.347 38.164,306.825 37.065 C 306.646 36.688,306.498 36.313,306.496 36.232 C 306.494 36.150,306.271 35.633,306.000 35.083 C 305.729 34.533,305.506 34.022,305.504 33.948 C 305.502 33.874,305.323 33.424,305.107 32.948 C 304.890 32.472,304.543 31.671,304.336 31.167 C 304.128 30.662,303.808 29.912,303.624 29.500 C 302.869 27.805,302.669 27.343,302.000 25.750 C 301.615 24.833,301.164 23.783,300.998 23.417 C 300.832 23.050,300.547 22.375,300.365 21.917 C 300.183 21.458,299.779 20.483,299.469 19.750 L 298.904 18.417 298.211 18.366 C 297.537 18.317,297.507 18.336,297.196 19.032 M130.333 19.273 L 130.333 20.000 131.208 20.001 C 134.016 20.004,133.853 19.275,133.797 31.515 L 133.750 41.694 133.232 42.157 C 132.811 42.533,132.494 42.641,131.524 42.736 L 130.333 42.854 130.333 43.468 L 130.333 44.083 134.750 44.083 L 139.167 44.083 139.167 43.479 C 139.167 42.812,138.865 42.667,137.482 42.667 C 137.007 42.667,136.696 42.540,136.294 42.180 L 135.750 41.694 135.711 32.555 L 135.673 23.417 136.228 24.583 C 136.534 25.225,137.479 27.175,138.328 28.917 C 140.299 32.957,141.954 36.387,142.752 38.083 C 143.097 38.817,143.846 40.392,144.417 41.583 C 144.987 42.775,145.507 43.919,145.572 44.125 C 145.862 45.053,146.553 44.618,147.160 43.125 C 147.468 42.369,147.871 41.412,148.055 41.000 C 148.239 40.587,148.401 40.212,148.415 40.167 C 148.465 40.007,150.011 36.726,151.362 33.917 C 151.846 32.908,152.248 32.046,152.255 32.000 C 152.266 31.918,153.550 29.269,155.257 25.803 C 155.740 24.824,156.092 23.981,156.040 23.928 C 155.987 23.876,156.026 23.833,156.125 23.833 C 156.224 23.833,156.382 23.627,156.476 23.375 C 156.594 23.055,156.637 25.760,156.615 32.306 L 156.583 41.696 156.134 42.082 C 155.690 42.464,154.410 42.833,153.529 42.833 C 153.104 42.833,153.078 42.874,153.134 43.458 L 153.194 44.083 158.430 44.083 L 163.667 44.083 163.667 43.479 C 163.667 42.821,163.361 42.667,162.054 42.667 C 160.138 42.667,160.178 42.903,160.169 31.674 C 160.159 19.373,160.001 20.191,162.427 20.036 L 163.667 19.956 163.667 19.257 L 163.667 18.558 160.067 18.589 L 156.468 18.619 156.059 19.601 C 155.834 20.141,155.509 20.921,155.337 21.333 C 155.166 21.746,154.805 22.533,154.536 23.083 C 154.268 23.633,153.783 24.646,153.458 25.333 C 151.739 28.979,151.126 30.255,149.336 33.917 C 148.260 36.117,147.334 38.048,147.279 38.208 C 147.094 38.740,146.925 38.515,145.845 36.290 C 145.256 35.076,144.694 34.028,144.595 33.961 C 144.497 33.894,144.468 33.837,144.532 33.836 C 144.595 33.834,144.051 32.633,143.323 31.167 C 142.595 29.700,142.000 28.435,142.000 28.354 C 142.000 28.273,141.890 28.116,141.755 28.004 C 141.621 27.893,141.522 27.752,141.535 27.692 C 141.559 27.586,141.360 27.147,139.791 23.833 C 138.285 20.653,137.945 19.913,137.908 19.733 C 137.887 19.632,137.764 19.347,137.634 19.100 L 137.399 18.650 133.866 18.598 L 130.333 18.545 130.333 19.273 M208.366 19.228 C 208.416 19.904,208.429 19.917,209.083 19.956 C 212.073 20.134,211.847 19.205,211.843 31.274 C 211.839 43.413,212.072 42.394,209.208 42.763 C 208.335 42.876,208.333 42.877,208.333 43.480 L 208.333 44.083 212.833 44.083 L 217.333 44.083 217.333 43.458 C 217.333 43.072,217.254 42.832,217.125 42.829 C 216.324 42.814,215.013 42.590,214.655 42.407 C 213.713 41.927,213.754 42.354,213.706 32.516 L 213.663 23.417 214.081 24.142 C 214.312 24.541,214.500 24.902,214.500 24.943 C 214.500 24.985,215.222 26.496,216.104 28.301 C 216.986 30.106,218.120 32.446,218.622 33.500 C 219.125 34.554,219.937 36.245,220.426 37.258 C 220.916 38.271,221.395 39.283,221.491 39.508 C 221.587 39.733,221.730 40.029,221.809 40.167 C 222.081 40.642,223.301 43.252,223.505 43.794 C 223.938 44.946,224.612 44.741,225.142 43.295 C 225.335 42.770,225.562 42.208,225.646 42.045 C 225.960 41.441,227.167 38.812,227.167 38.731 C 227.167 38.685,227.477 37.995,227.855 37.198 C 229.757 33.200,230.323 32.017,231.662 29.250 C 232.461 27.600,233.461 25.537,233.884 24.667 L 234.655 23.083 234.661 32.279 L 234.667 41.474 234.246 41.974 C 233.820 42.481,232.759 42.833,231.658 42.833 C 231.201 42.833,231.167 42.877,231.167 43.458 L 231.167 44.083 236.500 44.083 L 241.833 44.083 241.833 43.470 L 241.833 42.857 240.875 42.748 C 238.071 42.426,238.328 43.582,238.328 31.280 C 238.328 19.134,238.126 20.059,240.792 20.017 L 241.833 20.000 241.833 19.273 L 241.833 18.546 238.199 18.565 L 234.565 18.583 234.169 19.500 C 233.645 20.716,232.927 22.301,232.207 23.833 C 231.884 24.521,231.327 25.711,230.969 26.478 C 229.577 29.461,228.902 30.863,227.396 33.909 C 226.536 35.647,225.833 37.165,225.833 37.284 C 225.833 37.403,225.766 37.500,225.684 37.500 C 225.603 37.500,225.432 37.761,225.304 38.080 L 225.073 38.660 224.713 37.955 C 223.689 35.950,218.513 25.282,217.416 22.917 C 217.076 22.183,216.553 21.058,216.254 20.417 C 215.954 19.775,215.663 19.100,215.606 18.917 C 215.507 18.598,215.348 18.582,211.910 18.562 L 208.316 18.540 208.366 19.228 M250.333 19.292 L 250.333 20.000 251.339 20.000 C 253.983 20.000,253.833 19.309,253.833 31.541 L 253.833 41.938 253.375 42.365 C 253.123 42.600,252.748 42.879,252.542 42.985 C 252.292 43.114,252.167 43.330,252.167 43.631 L 252.167 44.083 258.208 44.070 C 264.296 44.056,265.063 44.008,266.583 43.549 C 273.529 41.453,276.909 36.682,276.618 29.383 C 276.494 26.243,275.885 24.494,274.242 22.561 C 273.513 21.703,271.578 20.167,271.225 20.167 C 271.101 20.167,271.000 20.101,271.000 20.022 C 271.000 19.842,268.822 19.058,267.632 18.810 C 267.067 18.692,263.804 18.618,258.542 18.605 L 250.333 18.583 250.333 19.292 M320.201 19.250 L 320.250 19.917 321.564 20.010 C 322.733 20.093,322.923 20.154,323.273 20.561 L 323.667 21.019 323.667 31.517 L 323.667 42.016 323.226 42.425 C 322.983 42.649,322.726 42.833,322.654 42.833 C 322.375 42.833,322.000 43.378,322.000 43.785 L 322.000 44.213 323.292 44.095 C 324.846 43.954,329.624 43.959,331.259 44.103 C 338.059 44.703,344.844 40.061,346.180 33.895 C 346.297 33.357,346.419 32.804,346.452 32.667 C 347.539 28.125,345.216 22.405,341.417 20.273 C 340.479 19.746,337.838 18.811,337.638 18.935 C 337.566 18.979,337.337 18.922,337.128 18.809 C 336.842 18.653,334.724 18.600,328.451 18.593 L 320.152 18.583 320.201 19.250 M375.805 20.850 C 375.695 24.498,375.731 24.696,376.477 24.634 C 377.070 24.584,377.084 24.567,377.124 23.833 C 377.183 22.767,377.502 21.119,377.696 20.883 C 378.073 20.425,387.544 20.070,389.796 20.430 L 390.501 20.543 390.134 21.146 C 389.933 21.478,389.724 21.787,389.670 21.833 C 389.616 21.879,388.791 22.967,387.837 24.250 C 386.883 25.533,386.041 26.658,385.967 26.750 C 385.892 26.842,385.498 27.367,385.090 27.917 C 384.682 28.467,384.201 29.104,384.021 29.333 C 383.618 29.846,382.281 31.621,381.165 33.125 C 380.706 33.744,380.230 34.362,380.108 34.500 C 379.987 34.637,379.334 35.500,378.658 36.417 C 377.981 37.333,377.386 38.121,377.336 38.167 C 377.285 38.212,376.776 38.850,376.206 39.583 C 375.636 40.317,375.075 41.027,374.960 41.161 C 373.396 42.987,373.320 43.099,373.367 43.526 L 373.417 43.971 384.433 44.074 L 395.450 44.177 395.572 42.547 C 395.639 41.650,395.725 40.317,395.765 39.583 C 395.804 38.850,395.874 38.081,395.921 37.875 C 396.000 37.526,395.950 37.500,395.205 37.500 L 394.404 37.500 394.223 39.221 C 394.014 41.213,393.847 41.608,393.081 41.928 C 392.451 42.192,378.667 42.499,378.667 42.250 C 378.667 42.176,379.131 41.508,379.699 40.766 C 380.911 39.181,381.723 38.107,382.223 37.426 C 382.421 37.156,382.790 36.696,383.042 36.404 C 383.294 36.112,383.500 35.821,383.500 35.758 C 383.500 35.695,383.594 35.538,383.708 35.411 C 384.151 34.916,385.758 32.815,386.750 31.432 C 387.025 31.048,387.906 29.895,388.708 28.868 C 389.510 27.842,390.167 26.933,390.167 26.848 C 390.167 26.764,390.223 26.669,390.293 26.639 C 390.362 26.608,390.736 26.171,391.124 25.667 C 391.513 25.162,391.893 24.673,391.970 24.579 C 392.047 24.485,392.254 24.186,392.430 23.915 C 392.606 23.644,392.863 23.303,393.000 23.156 C 393.469 22.658,394.000 21.998,394.000 21.913 C 394.000 21.867,394.448 21.362,394.996 20.790 C 395.860 19.888,395.993 19.664,395.996 19.104 L 396.000 18.457 395.177 18.566 C 394.099 18.709,391.250 18.710,382.813 18.567 L 375.877 18.450 375.805 20.850 M187.667 20.072 C 189.791 20.375,191.761 21.631,193.583 23.845 C 196.664 27.589,196.203 36.948,192.773 40.329 C 187.299 45.723,177.696 41.728,176.558 33.583 C 176.520 33.308,176.416 32.723,176.327 32.283 C 175.152 26.435,178.809 20.542,183.913 20.058 C 184.370 20.015,184.782 19.938,184.830 19.888 C 184.907 19.806,186.552 19.913,187.667 20.072 M266.500 20.948 C 268.063 21.480,270.093 22.799,270.750 23.710 C 271.382 24.586,272.010 25.667,271.887 25.667 C 271.835 25.667,271.868 25.760,271.960 25.875 C 272.220 26.198,272.636 28.267,272.755 29.833 C 273.426 38.624,268.023 43.399,258.750 42.211 L 257.750 42.083 257.564 40.500 C 257.350 38.674,257.354 21.636,257.568 21.047 C 257.924 20.071,263.734 20.006,266.500 20.948 M335.391 20.660 C 341.602 22.248,344.165 28.132,341.966 35.750 C 341.068 38.862,337.804 41.610,334.333 42.177 C 332.469 42.481,327.986 42.375,327.620 42.017 C 327.101 41.510,327.042 21.236,327.557 20.720 C 328.020 20.258,333.649 20.215,335.391 20.660 M298.155 25.500 C 298.509 26.405,298.764 27.015,299.147 27.873 C 299.341 28.308,299.500 28.711,299.500 28.769 C 299.500 28.915,300.382 30.897,300.493 31.000 C 300.543 31.046,300.606 31.215,300.633 31.377 C 300.660 31.538,300.904 32.164,301.174 32.767 C 301.445 33.371,301.667 33.895,301.667 33.932 C 301.667 33.969,299.717 34.000,297.333 34.000 C 294.445 34.000,293.000 33.942,293.000 33.827 C 293.000 33.731,293.150 33.359,293.333 33.000 C 293.517 32.641,293.667 32.270,293.667 32.177 C 293.667 32.084,293.929 31.447,294.250 30.761 C 294.571 30.076,294.833 29.467,294.833 29.408 C 294.833 29.349,294.940 29.064,295.070 28.775 C 295.607 27.581,296.809 24.706,297.016 24.118 L 297.239 23.485 297.583 24.201 C 297.772 24.595,298.030 25.179,298.155 25.500 M60.995 28.450 C 60.468 28.813,59.028 30.141,56.451 32.642 L 55.704 33.367 54.643 32.674 C 51.640 30.714,48.268 29.431,44.167 28.690 C 39.651 27.874,31.612 29.082,27.500 31.195 C 25.258 32.346,22.553 34.690,21.985 35.973 C 21.857 36.263,21.701 36.500,21.640 36.500 C 21.430 36.500,20.838 38.578,20.784 39.500 C 20.575 43.069,23.048 46.170,26.767 47.004 C 28.424 47.375,34.058 47.021,34.750 46.502 C 34.842 46.433,35.217 46.323,35.583 46.257 C 37.484 45.915,44.504 42.568,45.417 41.568 C 45.508 41.467,45.996 41.139,46.500 40.837 C 47.004 40.536,47.454 40.238,47.500 40.174 C 47.546 40.111,47.696 40.007,47.833 39.943 C 47.971 39.880,48.354 39.623,48.686 39.372 C 50.655 37.883,51.820 36.958,52.344 36.470 C 54.593 34.374,53.626 35.642,50.747 38.565 C 50.195 39.125,48.657 40.737,47.330 42.148 C 41.711 48.119,38.916 50.907,35.250 54.200 C 33.796 55.506,32.527 56.521,31.334 57.333 C 30.862 57.654,30.383 58.002,30.270 58.106 C 30.156 58.210,29.767 58.455,29.406 58.652 C 29.045 58.848,28.525 59.144,28.250 59.310 C 24.116 61.804,17.017 60.916,18.671 58.113 C 19.578 56.576,18.156 54.797,17.006 56.031 C 15.958 57.157,17.332 59.589,19.653 60.717 C 23.008 62.348,29.951 60.270,33.917 56.448 C 34.030 56.339,34.482 55.950,34.923 55.583 C 36.522 54.252,37.454 53.380,39.417 51.381 C 41.489 49.270,45.518 45.054,46.890 43.561 C 47.323 43.090,47.993 42.373,48.380 41.967 C 48.767 41.562,50.133 40.119,51.417 38.761 C 56.181 33.720,55.603 34.122,56.730 35.063 C 57.195 35.451,57.011 36.305,56.458 36.328 C 56.390 36.331,56.333 36.446,56.333 36.583 C 56.333 36.721,56.277 36.833,56.208 36.833 C 56.139 36.833,55.558 37.440,54.916 38.182 C 54.275 38.924,53.563 39.736,53.333 39.987 C 53.104 40.238,52.504 40.921,52.000 41.506 C 51.496 42.091,50.971 42.688,50.833 42.833 C 50.696 42.979,50.223 43.544,49.783 44.090 C 49.343 44.637,48.855 45.233,48.700 45.417 C 48.545 45.600,48.101 46.163,47.713 46.667 C 47.326 47.171,46.947 47.658,46.871 47.750 C 43.551 51.743,41.301 60.380,43.740 59.767 C 44.486 59.580,49.167 54.771,49.167 54.192 C 49.167 54.095,49.262 53.957,49.378 53.883 C 49.495 53.810,49.985 53.262,50.468 52.667 C 50.950 52.071,51.511 51.387,51.714 51.148 C 51.917 50.908,52.284 50.458,52.529 50.148 C 52.775 49.837,53.925 48.421,55.086 47.000 C 56.247 45.579,57.433 44.125,57.723 43.769 C 58.013 43.413,58.325 43.038,58.417 42.935 C 58.508 42.833,58.881 42.375,59.244 41.916 C 59.608 41.458,59.949 41.046,60.001 41.000 C 60.054 40.954,60.551 40.385,61.106 39.735 C 61.660 39.085,62.257 38.399,62.432 38.212 C 62.607 38.024,63.275 37.283,63.917 36.565 C 66.762 33.379,70.769 29.391,71.540 28.979 C 72.181 28.636,71.205 30.705,70.155 31.917 C 69.996 32.100,69.511 32.775,69.077 33.417 C 68.015 34.986,66.331 37.203,66.010 37.453 C 65.867 37.565,65.825 37.660,65.917 37.664 C 66.013 37.668,66.006 37.723,65.899 37.794 C 65.797 37.862,65.211 38.517,64.597 39.250 C 63.222 40.890,63.167 40.956,61.858 42.500 C 57.621 47.501,56.527 49.007,54.953 52.000 C 52.023 57.573,53.196 62.333,57.498 62.333 C 58.886 62.333,60.570 61.677,61.046 60.950 C 61.666 60.004,61.284 59.912,60.252 60.757 C 58.645 62.074,55.923 62.030,54.777 60.668 C 53.821 59.533,54.063 57.959,55.595 55.333 C 57.811 51.534,58.999 49.628,60.417 47.598 C 60.967 46.810,61.529 45.959,61.667 45.708 C 61.804 45.456,61.963 45.212,62.020 45.167 C 62.076 45.121,62.391 44.671,62.719 44.167 C 63.047 43.663,63.919 42.371,64.658 41.296 C 65.396 40.221,66.000 39.273,66.000 39.189 C 66.000 39.105,66.094 38.998,66.208 38.953 C 66.323 38.907,66.567 38.580,66.750 38.227 C 66.933 37.873,67.162 37.508,67.258 37.417 C 67.355 37.325,68.029 36.350,68.756 35.250 C 69.482 34.150,70.118 33.212,70.167 33.167 C 70.834 32.550,72.500 29.348,72.500 28.684 C 72.500 26.769,67.749 30.948,61.151 38.667 C 60.798 39.079,60.332 39.604,60.115 39.833 C 59.316 40.676,56.223 44.416,54.250 46.923 C 53.975 47.273,53.675 47.640,53.583 47.738 C 53.492 47.837,53.056 48.367,52.616 48.917 C 52.176 49.467,51.689 50.067,51.533 50.250 C 50.690 51.246,50.191 51.848,49.667 52.504 C 44.757 58.644,42.061 60.849,43.992 57.144 C 44.180 56.784,44.333 56.419,44.333 56.333 C 44.333 56.247,44.548 55.855,44.811 55.463 C 45.509 54.420,45.841 53.851,45.822 53.729 C 45.812 53.669,45.874 53.575,45.958 53.519 C 46.042 53.463,46.467 52.826,46.903 52.104 C 47.746 50.708,49.497 47.971,49.902 47.417 C 50.412 46.719,51.667 44.804,51.667 44.723 C 51.667 44.677,51.917 44.327,52.223 43.945 C 52.529 43.563,53.185 42.650,53.681 41.917 C 54.177 41.183,54.715 40.438,54.875 40.260 C 55.035 40.083,55.167 39.882,55.167 39.814 C 55.167 39.746,55.265 39.591,55.385 39.470 C 55.505 39.349,55.945 38.749,56.364 38.137 C 57.921 35.857,57.846 35.891,58.673 37.092 C 59.206 37.867,59.448 37.997,59.603 37.592 C 59.692 37.361,58.810 36.062,58.376 35.784 C 58.227 35.688,58.435 35.284,59.126 34.328 C 61.112 31.582,61.576 30.891,62.029 30.000 C 62.843 28.402,62.284 27.564,60.995 28.450 M61.747 29.208 C 61.687 29.415,61.495 29.787,61.319 30.035 C 61.144 30.283,61.000 30.533,61.000 30.591 C 61.000 30.648,60.381 31.484,59.625 32.448 C 58.869 33.412,58.147 34.343,58.021 34.517 C 57.710 34.948,57.519 34.910,56.797 34.271 L 56.177 33.723 58.024 31.938 C 60.741 29.312,61.980 28.404,61.747 29.208 M43.750 29.332 C 47.121 29.768,51.401 31.349,54.196 33.191 C 54.524 33.407,54.905 33.658,55.044 33.750 C 55.254 33.889,55.203 33.994,54.729 34.393 C 54.386 34.682,54.204 34.764,54.266 34.601 C 54.466 34.079,53.760 34.328,53.000 35.047 C 52.587 35.437,51.500 36.355,50.583 37.086 C 49.667 37.818,48.879 38.454,48.833 38.500 C 48.594 38.739,45.644 40.707,43.549 42.024 C 42.511 42.676,40.284 43.810,39.333 44.169 C 39.012 44.290,38.675 44.444,38.583 44.511 C 38.060 44.892,33.612 46.217,32.083 46.446 C 24.032 47.653,19.374 42.639,23.213 36.896 C 27.171 30.974,34.781 28.171,43.750 29.332 " stroke="none" fill="#c4248c" fill-rule="evenodd"></path><path id="path1" d="M40.250 0.178 C 39.425 0.250,38.337 0.389,37.833 0.487 C 37.329 0.586,36.279 0.780,35.500 0.920 C 31.851 1.573,25.573 3.841,22.833 5.497 C 22.696 5.580,21.983 6.002,21.250 6.433 C 16.484 9.238,12.085 13.202,8.689 17.750 C 7.936 18.758,7.260 19.661,7.186 19.757 C 6.182 21.054,3.208 26.917,2.750 28.500 C 2.684 28.729,2.529 29.142,2.405 29.417 C 1.140 32.233,0.018 38.817,0.006 43.500 C -0.006 48.156,1.132 54.916,2.405 57.750 C 2.529 58.025,2.684 58.438,2.750 58.667 C 3.196 60.209,6.228 66.193,7.173 67.396 C 7.254 67.499,7.936 68.408,8.689 69.417 C 11.486 73.162,14.913 76.467,18.816 79.183 C 20.112 80.085,22.424 81.500,22.600 81.500 C 22.668 81.500,22.842 81.601,22.987 81.725 C 24.905 83.363,32.703 85.870,38.917 86.846 C 41.756 87.292,48.702 87.191,51.417 86.664 C 51.875 86.575,52.887 86.385,53.667 86.242 C 55.304 85.940,56.681 85.566,59.250 84.723 C 62.167 83.765,64.925 82.468,68.515 80.365 C 78.750 74.368,86.417 62.857,88.630 50.167 C 89.026 47.895,89.026 39.271,88.630 37.000 C 87.127 28.382,83.853 21.487,78.182 15.000 C 75.556 11.996,71.481 8.540,68.515 6.802 C 64.925 4.699,62.167 3.401,59.250 2.444 C 56.688 1.603,55.307 1.227,53.667 0.923 C 52.887 0.779,51.837 0.585,51.333 0.493 C 48.844 0.035,43.590 -0.114,40.250 0.178 M48.167 6.513 C 70.929 8.633,86.456 29.210,81.987 51.333 C 80.977 56.332,78.362 61.775,74.667 66.568 C 60.314 85.185,30.426 85.527,15.044 67.250 C 13.244 65.111,9.833 59.878,9.833 59.254 C 9.833 59.211,9.649 58.780,9.423 58.296 C 5.387 49.643,5.387 37.540,9.424 28.870 C 9.649 28.387,9.833 27.956,9.833 27.913 C 9.833 27.869,10.217 27.140,10.685 26.292 C 18.182 12.717,32.673 5.070,48.167 6.513 " stroke="none" fill="#f4e46c" fill-rule="evenodd"></path><path id="path2" d="M145.628 53.847 C 142.588 54.564,140.317 58.414,141.647 60.595 L 141.959 61.107 141.058 61.901 C 137.823 64.754,139.017 69.253,143.000 69.216 C 144.881 69.198,146.695 68.224,148.964 66.012 C 149.629 65.364,150.303 64.833,150.462 64.832 C 150.620 64.831,151.228 64.369,151.811 63.805 C 152.407 63.229,152.831 62.919,152.778 63.098 C 150.915 69.350,153.230 70.530,157.415 65.461 L 158.067 64.671 158.449 65.030 C 158.877 65.432,160.197 65.536,160.539 65.194 C 160.845 64.888,161.000 64.965,161.000 65.422 C 161.000 68.346,164.852 68.289,167.820 65.321 C 168.088 65.053,168.454 64.833,168.633 64.833 C 168.811 64.833,169.268 64.496,169.649 64.084 C 170.441 63.224,170.444 63.297,169.717 65.417 C 169.129 67.130,169.091 67.349,169.352 67.515 C 169.761 67.774,169.974 67.681,170.618 66.963 C 175.055 62.018,177.137 61.174,175.405 65.021 C 173.661 68.897,175.664 69.496,179.226 66.164 L 180.295 65.164 180.412 65.943 C 180.689 67.791,182.492 68.252,184.370 66.955 C 185.477 66.190,187.500 64.251,187.500 63.956 C 187.500 63.056,186.742 63.190,185.574 64.295 C 181.925 67.749,180.322 67.062,182.473 62.966 L 183.111 61.750 184.514 61.667 L 185.917 61.583 185.917 61.083 C 185.917 60.586,185.911 60.583,184.864 60.533 C 184.285 60.506,183.835 60.430,183.864 60.364 C 183.893 60.299,184.391 59.365,184.970 58.288 C 186.120 56.152,186.191 55.750,185.420 55.750 C 184.998 55.750,184.869 55.867,184.506 56.583 C 184.273 57.042,183.709 58.110,183.252 58.958 L 182.421 60.500 181.562 60.500 C 180.919 60.500,180.676 60.569,180.597 60.773 C 180.404 61.278,180.656 61.667,181.178 61.667 C 181.447 61.667,181.667 61.705,181.667 61.752 C 181.667 62.065,180.870 63.326,180.667 63.335 C 180.529 63.341,179.742 63.980,178.917 64.755 C 176.045 67.452,175.545 67.625,176.496 65.593 C 178.478 61.354,176.248 60.004,172.511 63.181 C 171.829 63.761,171.334 64.088,171.411 63.909 C 172.474 61.435,171.140 60.378,169.500 62.395 C 169.087 62.902,168.623 63.321,168.467 63.325 C 168.312 63.330,167.631 63.818,166.955 64.410 C 165.628 65.572,164.046 66.500,163.392 66.500 C 162.391 66.500,161.648 64.676,162.542 64.411 C 165.691 63.479,167.470 61.283,165.907 60.259 C 164.636 59.426,162.266 60.709,161.380 62.708 C 161.227 63.052,161.052 63.333,160.991 63.333 C 160.929 63.333,160.599 63.556,160.256 63.828 C 159.292 64.595,158.517 63.978,159.082 62.894 C 159.715 61.680,159.321 60.000,158.402 60.000 C 157.604 60.000,157.294 60.720,157.358 62.426 L 157.403 63.647 156.561 64.615 C 155.755 65.542,153.720 67.323,153.458 67.330 C 153.190 67.337,153.354 65.628,153.764 64.143 C 154.746 60.586,154.189 60.000,151.845 62.127 C 151.164 62.745,150.398 63.325,150.143 63.417 C 149.888 63.508,149.058 64.183,148.297 64.917 C 144.630 68.455,141.899 69.083,140.669 66.671 C 139.889 65.142,141.844 61.660,143.245 62.082 C 144.716 62.525,145.973 62.204,146.352 61.289 C 146.770 60.279,145.504 59.719,144.000 60.250 C 143.063 60.581,143.049 60.578,142.754 60.008 C 141.767 58.099,143.958 55.206,146.630 54.890 C 148.058 54.721,148.487 55.222,147.833 56.296 C 147.437 56.945,147.404 57.474,147.751 57.607 C 148.168 57.767,148.834 57.193,149.186 56.371 C 150.026 54.413,148.329 53.210,145.628 53.847 M223.729 53.881 C 222.776 54.425,221.615 56.605,221.001 59.000 C 220.801 59.779,220.612 60.504,220.580 60.610 C 220.537 60.753,220.343 60.758,219.833 60.629 C 218.541 60.301,216.917 61.160,216.002 62.656 C 215.774 63.028,215.487 63.333,215.365 63.333 C 215.242 63.333,214.903 63.575,214.612 63.871 C 213.791 64.706,211.377 66.798,211.002 66.999 C 210.557 67.237,210.558 66.949,211.005 66.077 C 213.461 61.291,210.887 59.714,206.887 63.553 L 206.025 64.381 206.210 63.649 C 206.865 61.064,206.077 60.431,204.423 62.212 C 203.849 62.829,203.276 63.333,203.149 63.333 C 203.021 63.334,202.617 63.600,202.250 63.927 C 201.883 64.253,201.396 64.686,201.167 64.889 C 200.543 65.441,199.497 66.052,199.378 65.934 C 198.981 65.537,199.583 63.279,200.433 61.979 C 200.590 61.739,200.672 61.420,200.614 61.271 C 200.471 60.897,199.714 60.928,199.471 61.318 C 199.278 61.626,199.254 61.623,198.720 61.216 C 196.499 59.522,192.815 62.701,193.033 66.122 C 193.179 68.427,194.864 68.492,197.125 66.279 L 198.167 65.260 198.167 65.888 C 198.167 67.787,199.813 67.658,202.259 65.569 C 202.732 65.164,203.221 64.833,203.345 64.833 C 203.469 64.833,203.892 64.518,204.285 64.132 C 205.137 63.296,205.149 63.369,204.490 65.336 C 203.693 67.715,204.130 68.445,205.428 66.905 C 209.186 62.447,211.878 61.270,210.239 64.803 C 209.177 67.092,209.275 68.333,210.518 68.333 C 211.102 68.333,212.391 67.689,212.833 67.175 C 212.879 67.122,213.414 66.647,214.022 66.119 L 215.128 65.160 215.238 65.788 C 215.652 68.172,217.735 68.543,219.706 66.585 L 220.329 65.966 220.504 66.428 C 221.133 68.083,222.433 67.765,225.067 65.312 C 225.961 64.479,226.173 64.187,226.133 63.844 C 226.046 63.095,225.512 63.244,224.333 64.348 C 222.252 66.296,221.613 66.518,221.456 65.346 C 221.373 64.729,221.450 64.536,222.255 63.325 C 225.965 57.751,226.847 52.100,223.729 53.881 M240.250 53.778 C 235.376 55.110,231.021 63.743,233.404 67.345 C 234.934 69.656,239.794 68.777,242.567 65.687 C 243.012 65.192,243.167 65.245,243.167 65.892 C 243.167 68.405,245.152 68.563,247.429 66.230 C 248.266 65.373,248.333 65.335,248.333 65.727 C 248.333 67.653,249.827 67.735,252.042 65.930 L 253.000 65.148 253.000 65.757 C 253.000 68.328,255.677 68.297,258.500 65.692 L 259.250 65.000 259.436 65.731 C 260.092 68.304,262.632 68.295,265.749 65.708 C 266.328 65.227,266.914 64.833,267.050 64.833 C 267.292 64.833,268.947 63.157,269.425 62.427 L 269.667 62.058 270.667 62.385 C 271.261 62.580,271.667 62.809,271.667 62.948 C 271.667 63.201,271.193 64.196,271.007 64.333 C 269.971 65.099,269.413 67.095,270.056 67.737 C 271.013 68.695,272.463 68.133,275.276 65.715 C 275.840 65.230,276.453 64.833,276.639 64.833 C 276.824 64.833,277.168 64.590,277.403 64.292 C 277.902 63.658,277.906 63.666,277.582 64.735 C 276.503 68.291,279.460 68.657,282.573 65.353 C 282.842 65.067,283.225 64.833,283.424 64.833 C 283.644 64.833,284.051 64.533,284.465 64.063 C 285.008 63.449,285.128 63.373,285.057 63.688 C 284.876 64.495,284.631 65.266,284.376 65.830 C 283.627 67.492,284.316 68.229,285.443 66.971 C 289.754 62.157,292.057 61.143,290.295 64.833 C 288.382 68.842,290.498 69.521,294.153 66.073 L 295.295 64.995 295.403 65.569 C 295.723 67.276,297.875 67.477,299.601 65.962 C 300.237 65.404,300.281 65.505,299.902 66.663 C 299.695 67.297,299.542 67.495,299.194 67.582 C 297.888 67.907,295.486 69.172,294.721 69.937 C 293.006 71.652,294.299 73.888,296.739 73.430 C 297.968 73.199,299.807 70.939,300.479 68.833 C 300.620 68.390,300.855 68.150,301.453 67.833 C 304.193 66.384,306.704 63.806,305.736 63.434 C 305.300 63.267,305.241 63.299,304.227 64.258 C 303.378 65.062,301.476 66.500,301.264 66.500 C 301.037 66.500,302.325 62.833,303.018 61.503 C 303.465 60.644,302.743 59.702,302.250 60.500 C 302.181 60.611,302.032 60.606,301.809 60.487 C 300.391 59.728,297.600 60.812,296.250 62.646 C 295.975 63.020,295.637 63.329,295.500 63.334 C 295.362 63.339,294.575 63.977,293.750 64.752 C 290.758 67.561,290.371 67.650,291.440 65.281 C 293.243 61.288,290.962 60.111,287.348 63.169 C 286.669 63.744,286.160 64.090,286.219 63.938 C 287.175 61.445,285.993 60.391,284.403 62.321 C 283.909 62.921,283.449 63.319,283.246 63.325 C 283.060 63.329,282.422 63.793,281.829 64.355 C 278.385 67.618,277.719 66.974,279.774 62.370 C 280.214 61.383,280.259 60.993,279.967 60.700 C 279.562 60.296,279.164 60.531,277.902 61.917 C 277.118 62.778,276.484 63.333,276.284 63.333 C 276.104 63.333,275.722 63.579,275.436 63.880 C 274.159 65.222,272.128 66.713,271.292 66.922 C 270.646 67.083,270.702 66.836,271.604 65.545 C 273.410 62.962,273.303 61.903,271.170 61.265 C 270.457 61.051,270.167 60.882,270.167 60.682 C 270.167 59.937,268.937 59.704,268.673 60.399 C 268.590 60.618,268.557 60.937,268.601 61.107 C 268.697 61.485,267.214 63.328,266.811 63.331 C 266.661 63.332,266.098 63.747,265.561 64.253 C 263.225 66.451,261.282 67.050,260.735 65.739 C 260.383 64.898,260.435 64.553,260.930 64.428 C 263.834 63.699,265.786 61.368,264.349 60.345 C 263.034 59.408,260.161 60.963,259.750 62.833 C 259.690 63.108,259.562 63.333,259.467 63.333 C 259.372 63.333,258.722 63.846,258.022 64.472 C 254.464 67.657,253.038 67.008,255.017 63.106 L 255.748 61.667 256.944 61.667 C 258.398 61.667,258.667 61.576,258.667 61.083 C 258.667 60.620,258.389 60.500,257.320 60.500 C 256.307 60.500,256.290 60.645,257.590 58.252 C 258.779 56.063,258.833 55.775,258.072 55.700 C 257.582 55.652,257.530 55.715,256.677 57.367 C 255.022 60.573,255.101 60.476,254.114 60.533 C 253.013 60.597,252.737 61.534,253.789 61.635 L 254.328 61.687 253.911 62.510 C 253.682 62.963,253.414 63.333,253.315 63.333 C 253.216 63.333,252.674 63.754,252.110 64.269 C 251.055 65.230,249.970 66.000,249.670 66.000 C 249.150 66.000,249.615 63.776,250.403 62.500 C 250.754 61.932,250.959 61.421,250.900 61.265 C 250.751 60.879,249.957 60.930,249.700 61.342 C 249.487 61.683,249.484 61.683,248.980 61.259 C 247.832 60.293,245.822 60.869,244.398 62.573 C 244.049 62.991,243.659 63.333,243.532 63.333 C 243.405 63.333,242.802 63.807,242.192 64.386 C 238.256 68.123,234.596 68.640,234.008 65.542 C 233.515 62.940,234.942 59.527,237.555 57.057 C 240.835 53.959,243.199 54.237,241.695 57.545 C 241.204 58.625,240.667 59.276,240.667 58.791 C 240.667 57.896,238.979 58.443,238.735 59.417 C 238.284 61.216,240.218 61.324,241.794 59.588 C 244.417 56.700,243.410 52.915,240.250 53.778 M318.167 54.103 C 313.987 55.640,312.838 58.966,315.768 61.043 C 318.758 63.162,319.415 63.925,319.416 65.278 C 319.417 66.210,319.520 66.169,316.792 66.331 C 313.014 66.555,312.000 67.024,312.000 68.547 C 312.000 71.558,318.169 70.925,319.870 67.739 C 320.112 67.285,320.344 67.146,321.370 66.838 C 322.037 66.638,323.046 66.186,323.612 65.834 C 324.683 65.168,324.833 65.191,324.833 66.016 C 324.833 66.193,325.090 66.618,325.404 66.961 C 326.565 68.227,328.786 67.723,331.195 65.648 C 331.715 65.200,332.280 64.833,332.451 64.833 C 332.773 64.833,333.941 63.703,334.708 62.650 L 335.145 62.050 336.156 62.382 C 337.341 62.771,337.397 62.951,336.658 64.017 C 336.378 64.420,335.959 65.026,335.727 65.363 C 334.454 67.212,335.722 68.849,337.683 67.889 C 338.580 67.449,340.010 66.436,340.913 65.601 C 341.369 65.179,341.880 64.833,342.047 64.833 C 342.215 64.833,342.798 64.379,343.343 63.824 C 343.887 63.269,344.332 62.838,344.330 62.866 C 344.329 62.894,344.180 63.479,344.000 64.167 C 343.278 66.922,343.658 68.843,344.877 68.600 C 345.822 68.411,348.084 66.629,349.164 65.223 C 349.565 64.701,349.572 64.699,349.959 65.003 C 350.608 65.514,351.262 65.571,352.010 65.181 C 352.377 64.990,352.819 64.833,352.993 64.833 C 353.167 64.833,353.501 64.590,353.736 64.292 C 354.236 63.658,354.239 63.666,353.915 64.735 C 352.871 68.175,355.374 68.693,358.542 65.691 L 359.167 65.099 359.167 65.808 C 359.167 68.941,363.037 68.828,366.541 65.594 L 367.166 65.018 367.276 65.707 C 367.689 68.292,370.658 68.264,373.695 65.648 C 374.215 65.200,374.764 64.833,374.916 64.833 C 375.068 64.833,375.665 64.346,376.244 63.750 C 377.551 62.404,377.502 62.398,377.977 63.983 C 378.647 66.218,377.799 67.418,376.096 66.642 C 375.345 66.300,374.785 67.181,375.478 67.614 C 377.384 68.805,382.298 66.724,383.681 64.140 C 384.282 63.017,383.174 63.144,381.859 64.350 C 381.249 64.908,380.450 65.568,380.083 65.816 L 379.417 66.267 379.475 65.465 C 379.516 64.895,379.401 64.303,379.078 63.417 C 378.595 62.092,378.601 61.367,379.099 60.816 C 379.465 60.411,379.341 59.763,378.884 59.698 C 378.606 59.658,378.096 60.084,376.738 61.490 C 375.758 62.504,374.862 63.333,374.746 63.333 C 374.631 63.333,373.936 63.840,373.202 64.458 C 371.765 65.670,370.310 66.500,369.620 66.500 C 368.587 66.500,367.837 64.661,368.774 64.425 C 370.732 63.934,372.733 62.415,372.733 61.421 C 372.733 58.995,368.624 60.041,367.658 62.712 C 367.539 63.040,367.313 63.370,367.156 63.446 C 366.999 63.521,366.383 64.033,365.787 64.583 C 362.387 67.725,359.205 67.524,360.571 64.255 C 361.316 62.470,364.000 60.839,364.000 62.170 C 364.000 62.789,364.651 63.192,365.078 62.837 C 365.344 62.617,365.431 61.404,365.206 61.067 C 364.353 59.789,361.623 60.632,360.158 62.625 C 359.872 63.015,359.549 63.333,359.439 63.333 C 359.330 63.333,358.756 63.793,358.162 64.355 C 354.719 67.618,354.053 66.974,356.107 62.370 C 356.548 61.383,356.593 60.993,356.300 60.700 C 355.896 60.296,355.497 60.531,354.236 61.917 C 353.526 62.696,352.811 63.333,352.645 63.333 C 352.480 63.333,352.075 63.570,351.745 63.860 L 351.145 64.387 350.734 63.976 C 350.337 63.580,350.332 63.544,350.578 62.955 C 351.173 61.530,350.838 60.000,349.930 60.000 C 349.130 60.000,348.795 60.752,348.857 62.406 C 348.907 63.744,348.928 63.698,347.667 65.061 C 346.964 65.821,345.142 67.333,344.929 67.333 C 344.591 67.333,344.883 65.396,345.597 62.908 C 346.317 60.398,344.694 60.433,342.433 62.976 C 342.258 63.173,341.975 63.333,341.803 63.333 C 341.632 63.333,341.062 63.741,340.537 64.239 C 339.333 65.382,338.279 66.185,337.382 66.642 C 336.072 67.310,336.001 67.023,337.101 65.512 C 338.914 63.021,338.789 61.936,336.610 61.251 C 335.910 61.031,335.693 60.875,335.546 60.487 C 335.397 60.092,335.264 60.000,334.844 60.000 C 334.292 60.000,333.907 60.563,334.105 61.079 C 334.225 61.393,332.584 63.389,332.182 63.419 C 332.022 63.430,331.325 63.922,330.633 64.512 C 329.271 65.670,327.806 66.500,327.120 66.500 C 326.087 66.500,325.337 64.661,326.274 64.425 C 328.232 63.934,330.233 62.415,330.233 61.421 C 330.233 59.013,326.145 60.031,325.163 62.683 C 324.844 63.547,322.550 65.270,321.208 65.655 L 320.708 65.798 320.604 64.908 C 320.415 63.301,319.458 62.072,317.225 60.572 C 314.926 59.026,314.741 57.609,316.653 56.201 C 319.736 53.933,323.305 55.660,321.750 58.668 C 321.370 59.401,321.474 59.917,322.000 59.917 C 322.940 59.917,323.628 57.367,323.078 55.927 C 322.498 54.406,319.932 53.454,318.167 54.103 M224.171 56.973 C 223.849 57.987,223.449 58.834,222.114 61.324 C 221.463 62.538,221.447 62.367,221.996 60.078 C 222.530 57.849,223.295 55.988,223.969 55.279 L 224.417 54.807 224.470 55.335 C 224.499 55.626,224.365 56.363,224.171 56.973 M280.696 57.552 C 280.146 58.138,280.205 58.833,280.804 58.833 C 281.394 58.833,282.000 58.215,282.000 57.614 C 282.000 57.021,281.229 56.985,280.696 57.552 M357.029 57.552 C 356.479 58.138,356.538 58.833,357.138 58.833 C 357.727 58.833,358.333 58.215,358.333 57.614 C 358.333 57.021,357.562 56.985,357.029 57.552 M165.236 61.310 C 165.411 61.593,164.092 62.553,162.908 63.003 C 162.440 63.181,162.449 63.141,163.073 62.269 C 163.564 61.581,165.008 60.941,165.236 61.310 M263.597 61.356 C 263.738 61.584,263.209 62.026,262.112 62.599 C 261.044 63.156,260.861 63.051,261.532 62.263 C 262.279 61.387,263.331 60.925,263.597 61.356 M329.080 61.327 C 329.203 61.527,327.801 62.562,326.956 62.894 C 326.292 63.156,326.289 63.133,326.886 62.272 C 327.369 61.575,328.841 60.941,329.080 61.327 M371.580 61.327 C 371.703 61.527,370.301 62.562,369.456 62.894 C 368.792 63.156,368.789 63.133,369.386 62.272 C 369.869 61.575,371.341 60.941,371.580 61.327 M301.371 61.614 C 301.578 61.730,300.133 63.698,299.102 64.703 C 297.045 66.710,295.636 65.781,297.186 63.439 C 298.166 61.960,300.315 61.023,301.371 61.614 M219.725 61.824 C 220.820 62.240,220.502 63.954,219.064 65.393 C 217.574 66.883,216.666 67.020,216.435 65.789 C 216.082 63.906,218.269 61.270,219.725 61.824 M198.084 62.334 C 198.481 62.773,198.341 63.064,196.950 64.686 C 195.149 66.787,194.167 67.171,194.167 65.776 C 194.167 63.526,196.950 61.081,198.084 62.334 M248.400 62.361 C 248.738 62.843,248.488 63.266,246.776 65.100 C 245.131 66.863,244.344 67.115,244.336 65.881 C 244.320 63.622,247.410 60.946,248.400 62.361 M318.163 67.921 C 317.060 69.094,314.561 69.739,313.588 69.102 C 312.299 68.257,313.775 67.553,316.904 67.518 L 318.558 67.500 318.163 67.921 M298.711 69.816 C 297.574 72.024,295.584 73.139,295.238 71.763 C 295.033 70.945,295.859 70.217,297.996 69.331 C 299.313 68.784,299.261 68.750,298.711 69.816 " stroke="none" fill="#040404" fill-rule="evenodd"></path><path id="path3" d="M327.242 30.250 C 327.242 33.550,327.264 34.924,327.291 33.302 C 327.319 31.681,327.319 28.981,327.291 27.302 C 327.264 25.624,327.242 26.950,327.242 30.250 M153.042 43.583 C 153.044 43.950,153.078 44.080,153.118 43.873 C 153.158 43.666,153.156 43.366,153.115 43.206 C 153.073 43.047,153.040 43.217,153.042 43.583 " stroke="none" fill="#c42494" fill-rule="evenodd"></path><path id="path4" d="" stroke="none" fill="#944490" fill-rule="evenodd"></path></g></svg>