<svg width="15476" height="8904" viewBox="0 0 15476 8904" fill="none" xmlns="http://www.w3.org/2000/svg">
<path d="M3849 11153C3849 11151.9 3849.9 11151 3851 11151H19314C19315.1 11151 19316 11151.9 19316 11153V20012C19316 20013.1 19315.1 20014 19314 20014H3851C3849.9 20014 3849 20013.1 3849 20012V11153Z" fill="#F3EAE3"/>
<path d="M3841 16434L14886.5 11118.5L19254.5 11118.5L3841 19277.5L3841 16434Z" fill="#F3C464"/>
<path d="M3851 11152H19314V11150H3851V11152ZM19315 11153V20012H19317V11153H19315ZM19314 20013H3851V20015H19314V20013ZM3850 20012V11153H3848V20012H3850ZM3851 20013C3850.45 20013 3850 20012.6 3850 20012H3848C3848 20013.7 3849.34 20015 3851 20015V20013ZM19315 20012C19315 20012.6 19314.6 20013 19314 20013V20015C19315.7 20015 19317 20013.7 19317 20012H19315ZM19314 11152C19314.6 11152 19315 11152.4 19315 11153H19317C19317 11151.3 19315.7 11150 19314 11150V11152ZM3851 11150C3849.34 11150 3848 11151.3 3848 11153H3850C3850 11152.4 3850.45 11152 3851 11152V11150Z" fill="#F3C464"/>
<path d="M9 35.0001C9 33.8955 9.89543 33 11 33H15474C15475.1 33 15476 33.8954 15476 35V8894C15476 8895.1 15475.1 8896 15474 8896H10.9996C9.89504 8896 9 8895.1 9 8894V35.0001Z" fill="#F3EAE3"/>
<path d="M0.999295 8344.5L15443 103.5L15443 701L15443 3628.5L4384.5 8904L0.998891 8904L0.999295 8344.5Z" fill="#F3C464"/>
<path d="M0.998515 5316L11046.5 0.500328L15414.5 0.500437L0.998757 8159.5L0.998515 5316Z" fill="#F3C464"/>
<path d="M11 34H15474V32H11V34ZM15475 35V8894H15477V35H15475ZM15474 8895H10.9996V8897H15474V8895ZM10 8894V35.0001H8V8894H10ZM10.9996 8895C10.4476 8895 10 8894.55 10 8894H8C8 8895.66 9.34251 8897 10.9996 8897V8895ZM15475 8894C15475 8894.55 15474.6 8895 15474 8895V8897C15475.7 8897 15477 8895.66 15477 8894H15475ZM15474 34C15474.6 34 15475 34.4475 15475 35H15477C15477 33.3434 15475.7 32 15474 32V34ZM11 32C9.34311 32 8 33.3432 8 35.0001H10C10 34.4477 10.4477 34 11 34V32Z" fill="#F3C464"/>
<rect x="12" y="36" width="55.375" height="26" rx="2" fill="#F3EAE3"/>
<rect x="12.5" y="36.5" width="54.375" height="25" rx="1.5" stroke="black" stroke-opacity="0.14902"/>
<path d="M21.3438 46C21.2969 45.6042 21.1068 45.2969 20.7734 45.0781C20.4401 44.8594 20.0313 44.75 19.5469 44.75C19.1927 44.75 18.8828 44.8073 18.6172 44.9219C18.3542 45.0365 18.1484 45.194 18 45.3945C17.8542 45.5951 17.7813 45.8229 17.7813 46.0781C17.7813 46.2917 17.832 46.4753 17.9336 46.6289C18.0378 46.7799 18.1706 46.9062 18.332 47.0078C18.4935 47.1068 18.6628 47.1888 18.8398 47.2539C19.0169 47.3164 19.1797 47.3672 19.3281 47.4062L20.1406 47.625C20.349 47.6797 20.5807 47.7552 20.8359 47.8516C21.0938 47.9479 21.3398 48.0794 21.5742 48.2461C21.8112 48.4102 22.0065 48.6211 22.1602 48.8789C22.3138 49.1367 22.3906 49.4531 22.3906 49.8281C22.3906 50.2604 22.2773 50.651 22.0508 51C21.8268 51.349 21.4987 51.6263 21.0664 51.832C20.6367 52.0378 20.1146 52.1406 19.5 52.1406C18.9271 52.1406 18.431 52.0482 18.0117 51.8633C17.5951 51.6784 17.2669 51.4206 17.0273 51.0898C16.7904 50.7591 16.6563 50.375 16.625 49.9375H17.625C17.651 50.2396 17.7526 50.4896 17.9297 50.6875C18.1094 50.8828 18.3359 51.0286 18.6094 51.125C18.8854 51.2187 19.1823 51.2656 19.5 51.2656C19.8698 51.2656 20.2018 51.2057 20.4961 51.0859C20.7904 50.9635 21.0234 50.7943 21.1953 50.5781C21.3672 50.3594 21.4531 50.1042 21.4531 49.8125C21.4531 49.5469 21.3789 49.3307 21.2305 49.1641C21.082 48.9974 20.8867 48.862 20.6445 48.7578C20.4023 48.6536 20.1406 48.5625 19.8594 48.4844L18.875 48.2031C18.25 48.0234 17.7552 47.7669 17.3906 47.4336C17.026 47.1003 16.8438 46.6641 16.8438 46.125C16.8438 45.6771 16.9648 45.2865 17.207 44.9531C17.4518 44.6172 17.7799 44.3568 18.1914 44.1719C18.6055 43.9844 19.0677 43.8906 19.5781 43.8906C20.0938 43.8906 20.5521 43.9831 20.9531 44.168C21.3542 44.3503 21.6719 44.6003 21.9062 44.918C22.1432 45.2357 22.2682 45.5964 22.2813 46H21.3438ZM26.374 52.125C25.7959 52.125 25.2972 51.9974 24.8779 51.7422C24.4613 51.4844 24.1396 51.125 23.9131 50.6641C23.6891 50.2005 23.5771 49.6615 23.5771 49.0469C23.5771 48.4323 23.6891 47.8906 23.9131 47.4219C24.1396 46.9505 24.4548 46.5833 24.8584 46.3203C25.2646 46.0547 25.7386 45.9219 26.2803 45.9219C26.5928 45.9219 26.9014 45.974 27.2061 46.0781C27.5107 46.1823 27.7881 46.3516 28.0381 46.5859C28.2881 46.8177 28.4873 47.125 28.6357 47.5078C28.7842 47.8906 28.8584 48.362 28.8584 48.9219V49.3125H24.2334V48.5156H27.9209C27.9209 48.1771 27.8532 47.875 27.7178 47.6094C27.585 47.3437 27.3949 47.1341 27.1475 46.9805C26.9027 46.8268 26.6136 46.75 26.2803 46.75C25.9131 46.75 25.5954 46.8411 25.3271 47.0234C25.0615 47.2031 24.8571 47.4375 24.7139 47.7266C24.5706 48.0156 24.499 48.3255 24.499 48.6562V49.1875C24.499 49.6406 24.5771 50.0247 24.7334 50.3398C24.8923 50.6523 25.1123 50.8906 25.3936 51.0547C25.6748 51.2161 26.0016 51.2969 26.374 51.2969C26.6162 51.2969 26.835 51.263 27.0303 51.1953C27.2282 51.125 27.3988 51.0208 27.542 50.8828C27.6852 50.7422 27.7959 50.5677 27.874 50.3594L28.7646 50.6094C28.6709 50.9115 28.5133 51.1771 28.292 51.4062C28.0706 51.6328 27.7972 51.8099 27.4717 51.9375C27.1462 52.0625 26.7803 52.125 26.374 52.125ZM32.6982 52.125C32.1357 52.125 31.6514 51.9922 31.2451 51.7266C30.8389 51.4609 30.5264 51.0951 30.3076 50.6289C30.0889 50.1628 29.9795 49.6302 29.9795 49.0312C29.9795 48.4219 30.0915 47.8841 30.3154 47.418C30.542 46.9492 30.8571 46.5833 31.2607 46.3203C31.667 46.0547 32.141 45.9219 32.6826 45.9219C33.1045 45.9219 33.4847 46 33.8232 46.1562C34.1618 46.3125 34.4391 46.5312 34.6553 46.8125C34.8714 47.0937 35.0055 47.4219 35.0576 47.7969H34.1357C34.0654 47.5234 33.9092 47.2812 33.667 47.0703C33.4274 46.8568 33.1045 46.75 32.6982 46.75C32.3389 46.75 32.0238 46.8437 31.7529 47.0312C31.4847 47.2161 31.2751 47.4779 31.124 47.8164C30.9756 48.1523 30.9014 48.5469 30.9014 49C30.9014 49.4635 30.9743 49.8672 31.1201 50.2109C31.2686 50.5547 31.4769 50.8216 31.7451 51.0117C32.016 51.2018 32.3337 51.2969 32.6982 51.2969C32.9378 51.2969 33.1553 51.2552 33.3506 51.1719C33.5459 51.0885 33.7113 50.9688 33.8467 50.8125C33.9821 50.6562 34.0785 50.4687 34.1357 50.25H35.0576C35.0055 50.6042 34.8766 50.9232 34.6709 51.207C34.4678 51.4883 34.1982 51.7122 33.8623 51.8789C33.529 52.043 33.141 52.125 32.6982 52.125ZM39.0146 46V46.7812H35.9053V46H39.0146ZM36.8115 44.5625H37.7334V50.2812C37.7334 50.5417 37.7712 50.737 37.8467 50.8672C37.9248 50.9948 38.0238 51.0807 38.1436 51.125C38.266 51.1667 38.3949 51.1875 38.5303 51.1875C38.6318 51.1875 38.7152 51.1823 38.7803 51.1719C38.8454 51.1589 38.8975 51.1484 38.9365 51.1406L39.124 51.9687C39.0615 51.9922 38.9743 52.0156 38.8623 52.0391C38.7503 52.0651 38.6084 52.0781 38.4365 52.0781C38.1761 52.0781 37.9209 52.0221 37.6709 51.9102C37.4235 51.7982 37.2178 51.6276 37.0537 51.3984C36.8923 51.1693 36.8115 50.8802 36.8115 50.5312V44.5625ZM40.4014 52V46H41.3232V52H40.4014ZM40.8701 45C40.6904 45 40.5355 44.9388 40.4053 44.8164C40.2777 44.694 40.2139 44.5469 40.2139 44.375C40.2139 44.2031 40.2777 44.056 40.4053 43.9336C40.5355 43.8112 40.6904 43.75 40.8701 43.75C41.0498 43.75 41.2035 43.8112 41.3311 43.9336C41.4613 44.056 41.5264 44.2031 41.5264 44.375C41.5264 44.5469 41.4613 44.694 41.3311 44.8164C41.2035 44.9388 41.0498 45 40.8701 45ZM45.4492 52.125C44.9076 52.125 44.4323 51.9961 44.0234 51.7383C43.6172 51.4805 43.2995 51.1198 43.0703 50.6562C42.8438 50.1927 42.7305 49.651 42.7305 49.0312C42.7305 48.4062 42.8438 47.8607 43.0703 47.3945C43.2995 46.9284 43.6172 46.5664 44.0234 46.3086C44.4323 46.0508 44.9076 45.9219 45.4492 45.9219C45.9909 45.9219 46.4648 46.0508 46.8711 46.3086C47.2799 46.5664 47.5977 46.9284 47.8242 47.3945C48.0534 47.8607 48.168 48.4062 48.168 49.0312C48.168 49.651 48.0534 50.1927 47.8242 50.6562C47.5977 51.1198 47.2799 51.4805 46.8711 51.7383C46.4648 51.9961 45.9909 52.125 45.4492 52.125ZM45.4492 51.2969C45.8607 51.2969 46.1992 51.1914 46.4648 50.9805C46.7305 50.7695 46.9271 50.4922 47.0547 50.1484C47.1823 49.8047 47.2461 49.4323 47.2461 49.0312C47.2461 48.6302 47.1823 48.2565 47.0547 47.9102C46.9271 47.5638 46.7305 47.2839 46.4648 47.0703C46.1992 46.8568 45.8607 46.75 45.4492 46.75C45.0378 46.75 44.6992 46.8568 44.4336 47.0703C44.168 47.2839 43.9714 47.5638 43.8438 47.9102C43.7161 48.2565 43.6523 48.6302 43.6523 49.0312C43.6523 49.4323 43.7161 49.8047 43.8438 50.1484C43.9714 50.4922 44.168 50.7695 44.4336 50.9805C44.6992 51.1914 45.0378 51.2969 45.4492 51.2969ZM50.4971 48.3906V52H49.5752V46H50.4658V46.9375H50.5439C50.6846 46.6328 50.8981 46.388 51.1846 46.2031C51.471 46.0156 51.8408 45.9219 52.2939 45.9219C52.7002 45.9219 53.0557 46.0052 53.3604 46.1719C53.665 46.3359 53.902 46.5859 54.0713 46.9219C54.2406 47.2552 54.3252 47.6771 54.3252 48.1875V52H53.4033V48.25C53.4033 47.7786 53.2809 47.4115 53.0361 47.1484C52.7913 46.8828 52.4554 46.75 52.0283 46.75C51.734 46.75 51.471 46.8138 51.2393 46.9414C51.0101 47.069 50.8291 47.2552 50.6963 47.5C50.5635 47.7448 50.4971 48.0417 50.4971 48.3906ZM61.9004 44V52H60.9316V45.0156H60.8848L58.9316 46.3125V45.3281L60.9316 44H61.9004Z" fill="black"/>
</svg>
