<svg id="svg" version="1.1" xmlns="http://www.w3.org/2000/svg" xmlns:xlink="http://www.w3.org/1999/xlink" width="400" height="127.5517011340894" viewBox="0, 0, 400,127.5517011340894"><g id="svgg"><path id="path0" d="M343.521 25.629 C 343.188 25.751,342.702 25.890,342.439 25.938 C 342.177 25.986,341.511 26.170,340.959 26.346 C 340.408 26.523,339.854 26.667,339.728 26.667 C 339.573 26.667,339.496 26.893,339.487 27.375 C 339.480 27.765,339.443 28.233,339.404 28.417 C 339.365 28.600,339.290 29.087,339.237 29.500 C 339.031 31.103,337.651 34.659,336.466 36.642 C 336.118 37.224,335.833 37.743,335.833 37.796 C 335.833 37.848,335.707 38.030,335.552 38.202 C 335.285 38.496,335.294 38.537,335.716 38.958 L 336.162 39.404 337.123 38.891 C 338.790 38.000,339.165 37.755,339.166 37.556 C 339.166 37.449,339.223 37.336,339.292 37.306 C 339.452 37.234,340.348 36.038,340.333 35.915 C 340.327 35.863,340.450 35.693,340.608 35.536 C 340.765 35.379,341.179 34.800,341.527 34.250 C 341.875 33.700,342.236 33.159,342.330 33.049 C 342.423 32.938,342.500 32.732,342.500 32.590 C 342.500 32.449,342.566 32.333,342.647 32.333 C 342.728 32.333,343.336 31.227,343.998 29.875 C 344.659 28.523,345.330 27.154,345.488 26.833 C 346.126 25.536,345.245 24.997,343.521 25.629 M84.333 26.781 C 81.945 27.174,79.106 27.889,78.833 28.165 C 78.787 28.212,78.675 28.267,78.583 28.287 C 77.641 28.498,74.569 30.128,74.298 30.560 C 74.232 30.665,74.109 30.750,74.024 30.750 C 73.881 30.750,71.135 33.489,70.747 34.019 C 69.597 35.588,68.688 37.418,68.024 39.500 C 67.833 40.096,67.637 40.883,67.588 41.250 C 67.539 41.617,67.433 42.367,67.353 42.917 C 67.134 44.417,67.126 47.620,67.337 48.927 C 67.439 49.563,67.557 50.346,67.598 50.667 C 67.639 50.987,67.821 51.682,68.003 52.209 C 68.185 52.736,68.334 53.299,68.334 53.459 C 68.334 53.619,68.484 53.996,68.667 54.296 C 68.850 54.596,69.000 54.914,69.000 55.002 C 69.000 55.264,70.689 58.000,70.851 58.000 C 70.933 58.000,71.000 58.096,71.000 58.213 C 71.000 58.330,71.131 58.543,71.292 58.687 C 71.452 58.830,71.938 59.334,72.372 59.807 C 72.806 60.280,73.235 60.667,73.325 60.667 C 73.415 60.667,73.569 60.817,73.667 61.000 C 73.765 61.183,73.949 61.333,74.075 61.333 C 74.202 61.333,74.331 61.393,74.361 61.465 C 74.515 61.829,78.587 64.053,78.956 63.974 C 79.026 63.959,79.196 63.992,79.333 64.047 C 80.110 64.359,81.296 64.688,81.818 64.737 C 82.147 64.768,83.335 64.888,84.458 65.004 C 86.469 65.211,86.840 65.194,90.452 64.741 C 91.265 64.639,93.686 63.941,94.417 63.598 C 94.692 63.469,95.292 63.189,95.750 62.977 C 98.619 61.646,102.582 58.227,103.450 56.333 C 103.513 56.196,103.644 55.992,103.741 55.881 C 104.242 55.304,104.334 55.163,104.337 54.965 C 104.339 54.847,104.487 54.563,104.667 54.333 C 104.846 54.104,104.994 53.800,104.996 53.658 C 104.998 53.516,105.077 53.323,105.171 53.229 C 105.404 52.996,106.178 50.903,106.334 50.083 C 106.403 49.717,106.585 48.854,106.737 48.167 C 107.522 44.614,106.889 39.630,105.223 36.250 C 104.195 34.162,104.004 33.833,103.824 33.833 C 103.738 33.833,103.667 33.751,103.667 33.651 C 103.667 33.382,103.062 32.661,102.939 32.783 C 102.881 32.841,102.833 32.779,102.833 32.644 C 102.833 32.326,100.803 30.421,100.161 30.137 C 99.889 30.017,99.667 29.861,99.667 29.790 C 99.667 29.600,96.653 28.155,96.481 28.262 C 96.400 28.312,96.333 28.283,96.333 28.197 C 96.333 28.059,95.419 27.784,95.275 27.879 C 95.244 27.900,95.105 27.823,94.968 27.709 C 94.743 27.523,93.973 27.352,91.000 26.830 C 90.120 26.675,85.195 26.639,84.333 26.781 M249.948 27.375 C 249.612 28.086,249.146 29.362,249.127 29.625 C 249.118 29.740,249.065 29.833,249.008 29.833 C 248.951 29.833,248.892 29.995,248.877 30.193 C 248.862 30.391,248.786 30.598,248.707 30.652 C 248.629 30.706,248.467 31.012,248.348 31.333 C 248.104 31.991,247.883 32.502,247.263 33.850 C 247.027 34.363,246.833 34.837,246.833 34.902 C 246.833 34.967,246.561 35.597,246.229 36.302 C 245.896 37.007,245.443 37.996,245.222 38.500 C 245.000 39.004,244.675 39.717,244.500 40.083 C 244.324 40.450,244.132 40.956,244.072 41.208 C 244.013 41.460,243.905 41.667,243.833 41.667 C 243.762 41.667,243.653 41.866,243.591 42.111 C 243.498 42.484,242.380 45.063,241.148 47.750 C 240.391 49.400,239.652 51.055,238.915 52.750 C 238.477 53.758,237.950 54.958,237.745 55.417 C 237.540 55.875,237.214 56.605,237.020 57.040 C 236.825 57.474,236.667 57.900,236.667 57.986 C 236.667 58.072,236.573 58.244,236.458 58.367 C 236.344 58.491,235.880 59.316,235.427 60.201 C 234.974 61.086,234.449 61.887,234.260 61.982 C 233.689 62.266,232.575 62.504,231.722 62.524 L 230.917 62.543 230.917 63.615 L 230.917 64.688 232.753 64.597 C 235.395 64.465,239.808 64.463,241.792 64.594 L 243.500 64.706 243.500 63.696 C 243.500 62.489,243.609 62.568,241.750 62.432 C 239.468 62.266,239.166 62.186,238.982 61.703 C 238.819 61.274,239.274 59.321,239.771 58.313 C 239.890 58.072,239.940 57.829,239.882 57.771 C 239.825 57.714,239.865 57.667,239.972 57.667 C 240.079 57.667,240.167 57.556,240.167 57.421 C 240.167 57.158,240.460 56.462,241.901 53.302 C 242.139 52.781,242.333 52.274,242.333 52.177 C 242.333 51.827,257.325 51.941,257.435 52.292 C 257.486 52.452,257.663 52.883,257.828 53.250 C 257.994 53.617,258.223 54.217,258.337 54.583 C 258.450 54.950,258.593 55.325,258.654 55.417 C 258.715 55.508,258.936 56.033,259.145 56.583 C 259.503 57.524,259.941 58.605,260.429 59.750 C 261.436 62.113,261.226 62.397,258.411 62.472 L 256.333 62.527 256.333 63.605 L 256.333 64.682 258.042 64.596 C 259.582 64.518,265.679 64.498,269.333 64.560 L 270.750 64.583 270.801 63.682 C 270.860 62.649,270.735 62.506,269.769 62.503 C 268.346 62.497,267.308 61.923,266.751 60.833 C 266.588 60.512,266.408 60.212,266.352 60.167 C 266.257 60.089,266.059 59.616,265.618 58.417 C 265.517 58.142,265.219 57.429,264.956 56.833 C 264.692 56.237,264.417 55.600,264.344 55.417 C 264.272 55.233,264.052 54.738,263.856 54.315 C 263.660 53.893,263.500 53.424,263.500 53.273 C 263.500 53.123,263.431 53.000,263.346 53.000 C 263.262 53.000,263.108 52.719,263.006 52.375 C 262.903 52.031,262.678 51.450,262.506 51.083 C 262.008 50.022,260.667 46.886,260.667 46.784 C 260.667 46.733,260.404 46.123,260.083 45.428 C 259.762 44.734,259.500 44.082,259.500 43.980 C 259.500 43.879,259.362 43.523,259.194 43.189 C 258.580 41.976,257.745 40.077,257.003 38.208 C 256.703 37.452,256.408 36.833,256.348 36.833 C 256.287 36.833,256.227 36.702,256.213 36.542 C 256.200 36.381,255.956 35.725,255.670 35.083 C 255.385 34.442,255.093 33.767,255.021 33.583 C 254.950 33.400,254.731 32.912,254.536 32.500 C 254.340 32.087,254.132 31.544,254.072 31.292 C 254.013 31.040,253.905 30.833,253.833 30.833 C 253.762 30.833,253.653 30.627,253.592 30.375 C 253.530 30.123,253.347 29.617,253.184 29.250 C 253.020 28.883,252.712 28.190,252.498 27.708 L 252.110 26.833 251.157 26.833 C 250.246 26.833,250.193 26.857,249.948 27.375 M366.227 27.123 L 364.704 27.179 364.684 30.048 C 364.673 31.626,364.653 33.273,364.639 33.708 C 364.625 34.144,364.625 34.837,364.640 35.250 L 364.667 36.000 365.631 36.000 C 366.430 36.000,366.600 35.950,366.620 35.708 C 366.721 34.479,367.185 30.938,367.261 30.816 C 367.602 30.264,368.866 30.003,371.583 29.924 C 374.094 29.851,384.652 29.834,385.167 29.902 C 385.396 29.933,385.753 29.967,385.961 29.979 L 386.338 30.000 385.879 30.708 C 385.627 31.098,385.057 31.859,384.613 32.400 C 383.907 33.261,383.338 34.049,382.750 34.981 C 382.658 35.126,382.152 35.789,381.625 36.454 C 381.098 37.119,380.667 37.710,380.667 37.766 C 380.667 37.822,380.498 38.072,380.292 38.320 C 380.085 38.568,379.767 38.984,379.583 39.244 C 379.400 39.505,379.119 39.856,378.958 40.025 C 378.798 40.195,378.667 40.402,378.667 40.486 C 378.667 40.570,378.610 40.664,378.542 40.694 C 378.372 40.770,377.333 42.118,377.333 42.264 C 377.333 42.328,377.231 42.463,377.106 42.565 C 376.982 42.667,376.236 43.612,375.450 44.667 C 374.663 45.721,373.715 46.979,373.343 47.462 C 372.971 47.945,372.667 48.414,372.667 48.503 C 372.667 48.593,372.593 48.667,372.502 48.667 C 372.412 48.667,372.138 48.985,371.894 49.375 C 371.650 49.765,371.368 50.138,371.267 50.206 C 371.166 50.273,371.156 50.329,371.245 50.331 C 371.335 50.332,371.241 50.450,371.037 50.593 C 370.833 50.735,370.667 50.958,370.667 51.087 C 370.667 51.216,370.517 51.402,370.333 51.500 C 370.150 51.598,370.000 51.763,370.000 51.867 C 370.000 51.971,369.889 52.174,369.754 52.319 C 369.170 52.944,368.000 54.509,368.000 54.664 C 368.000 54.757,367.938 54.833,367.862 54.833 C 367.785 54.833,367.468 55.190,367.156 55.625 C 366.667 56.307,365.065 58.361,364.196 59.417 C 364.046 59.600,363.920 59.788,363.917 59.833 C 363.914 59.879,363.669 60.179,363.371 60.500 C 361.195 62.844,361.095 63.005,361.196 63.964 L 361.250 64.473 377.417 64.528 L 393.583 64.583 393.599 63.917 C 393.607 63.550,393.664 62.650,393.724 61.917 C 393.784 61.183,393.879 59.496,393.934 58.167 C 393.989 56.837,394.046 55.563,394.059 55.333 C 394.082 54.940,394.030 54.914,393.139 54.867 C 392.022 54.808,392.101 54.671,391.760 57.253 C 391.325 60.549,391.351 60.459,390.620 61.084 C 390.253 61.399,389.896 61.622,389.827 61.579 C 389.758 61.537,389.300 61.579,388.809 61.672 C 387.266 61.967,368.805 62.102,368.866 61.818 C 368.894 61.689,368.955 61.546,369.002 61.500 C 369.378 61.134,370.500 59.672,370.500 59.548 C 370.500 59.462,370.692 59.211,370.927 58.990 C 371.162 58.770,371.511 58.325,371.703 58.003 C 371.894 57.680,372.134 57.342,372.236 57.250 C 372.577 56.943,375.000 53.667,375.000 53.513 C 375.000 53.429,375.056 53.336,375.125 53.306 C 375.338 53.211,376.667 51.533,376.667 51.359 C 376.667 51.268,376.733 51.169,376.815 51.139 C 376.896 51.108,377.694 50.108,378.587 48.917 C 379.480 47.725,380.295 46.695,380.397 46.628 C 380.499 46.560,380.522 46.504,380.446 46.503 C 380.371 46.501,380.433 46.376,380.585 46.225 C 380.736 46.073,381.169 45.529,381.547 45.016 C 381.924 44.503,382.331 43.984,382.450 43.863 C 382.569 43.742,382.667 43.574,382.667 43.489 C 382.667 43.346,382.943 42.985,383.750 42.073 C 383.933 41.866,384.196 41.530,384.333 41.328 C 384.471 41.125,384.665 40.873,384.766 40.768 C 384.866 40.662,385.138 40.278,385.370 39.913 C 385.602 39.548,385.990 39.025,386.232 38.750 C 386.994 37.886,387.087 37.761,387.325 37.292 C 387.452 37.040,387.608 36.833,387.672 36.833 C 387.736 36.833,388.004 36.515,388.269 36.125 C 388.533 35.735,388.789 35.379,388.839 35.333 C 388.888 35.287,389.357 34.688,389.880 34.000 C 390.403 33.313,390.963 32.588,391.124 32.390 C 391.285 32.193,391.679 31.708,392.000 31.314 C 392.321 30.920,392.939 30.220,393.373 29.757 C 394.113 28.970,394.163 28.859,394.165 28.019 L 394.167 27.121 393.269 27.226 C 391.601 27.422,377.973 27.358,369.417 27.114 C 368.500 27.088,367.065 27.092,366.227 27.123 M5.625 27.263 C 5.556 27.332,5.500 27.781,5.500 28.260 C 5.500 29.306,5.558 29.341,7.308 29.323 C 9.045 29.305,9.815 29.597,10.295 30.456 L 10.673 31.133 10.668 45.935 L 10.664 60.736 10.231 61.361 C 9.965 61.744,9.563 62.066,9.191 62.194 C 8.424 62.457,8.652 62.418,6.958 62.573 L 5.500 62.706 5.500 63.698 L 5.500 64.690 7.625 64.582 C 9.975 64.463,14.322 64.468,16.958 64.591 L 18.667 64.671 18.667 63.669 C 18.667 63.118,18.610 62.664,18.542 62.660 C 15.218 62.487,14.403 62.247,13.746 61.250 C 13.426 60.763,13.416 60.390,13.387 47.333 C 13.371 39.954,13.417 34.104,13.490 34.333 C 13.562 34.563,13.775 35.050,13.963 35.417 C 14.150 35.783,14.771 37.058,15.342 38.250 C 15.913 39.442,16.494 40.548,16.633 40.709 C 16.773 40.870,16.841 41.048,16.784 41.105 C 16.702 41.187,17.418 42.680,17.972 43.583 C 18.028 43.675,18.089 43.848,18.107 43.967 C 18.125 44.086,18.274 44.386,18.438 44.634 C 18.602 44.881,18.757 45.209,18.782 45.363 C 18.807 45.516,19.036 46.004,19.290 46.446 C 19.545 46.888,19.840 47.438,19.946 47.667 C 20.051 47.896,20.660 49.171,21.299 50.500 C 21.937 51.829,22.628 53.310,22.834 53.792 C 23.039 54.273,23.273 54.667,23.354 54.667 C 23.434 54.667,23.500 54.746,23.500 54.844 C 23.500 54.942,23.698 55.448,23.939 55.969 C 24.180 56.490,24.551 57.304,24.763 57.776 C 24.975 58.249,25.228 58.685,25.324 58.745 C 25.421 58.804,25.500 59.017,25.501 59.218 C 25.502 59.419,25.651 59.808,25.833 60.083 C 26.015 60.358,26.165 60.715,26.166 60.875 C 26.166 61.035,26.227 61.167,26.300 61.167 C 26.373 61.167,26.532 61.448,26.654 61.792 C 26.775 62.135,26.976 62.533,27.099 62.675 C 27.223 62.817,27.442 63.266,27.585 63.672 C 28.005 64.862,28.271 65.167,28.887 65.167 C 29.402 65.167,30.009 64.315,29.867 63.792 C 29.849 63.723,29.908 63.667,30.000 63.667 C 30.092 63.667,30.167 63.544,30.167 63.393 C 30.167 63.243,30.310 62.812,30.485 62.435 C 30.660 62.058,30.914 61.487,31.050 61.167 C 31.335 60.493,31.967 59.097,32.758 57.392 C 33.062 56.738,33.335 56.063,33.364 55.892 C 33.393 55.722,33.548 55.438,33.708 55.260 C 33.869 55.083,34.000 54.874,34.000 54.798 C 34.000 54.721,34.328 53.966,34.729 53.121 C 36.467 49.458,37.578 47.130,38.406 45.417 C 38.894 44.408,39.669 42.796,40.129 41.833 C 40.589 40.871,41.621 38.733,42.424 37.083 C 43.226 35.433,43.884 33.990,43.886 33.875 C 43.887 33.760,43.954 33.667,44.032 33.667 C 44.384 33.667,44.108 60.711,43.750 61.291 C 43.229 62.136,41.643 62.667,39.636 62.667 L 38.833 62.667 38.833 63.668 L 38.833 64.670 41.292 64.580 C 44.701 64.455,48.769 64.457,51.875 64.585 L 54.500 64.693 54.500 63.693 L 54.500 62.693 53.375 62.590 C 50.411 62.318,49.373 61.820,49.465 60.715 C 49.483 60.495,49.442 60.349,49.374 60.392 C 49.169 60.518,49.297 30.974,49.503 30.500 C 49.523 30.454,49.535 30.374,49.530 30.322 C 49.489 29.921,50.982 29.332,52.075 29.319 C 52.721 29.311,53.512 29.292,53.833 29.277 L 54.417 29.250 54.466 28.230 L 54.515 27.209 49.216 27.247 L 43.917 27.284 43.713 27.684 C 43.602 27.904,43.390 28.383,43.244 28.750 C 43.098 29.117,42.781 29.792,42.539 30.250 C 42.298 30.708,42.119 31.104,42.141 31.128 C 42.163 31.153,41.952 31.659,41.674 32.253 C 41.395 32.847,40.935 33.840,40.653 34.458 C 40.370 35.077,39.875 36.146,39.553 36.833 C 39.230 37.521,38.791 38.458,38.577 38.917 C 38.363 39.375,37.651 40.875,36.994 42.250 C 36.337 43.625,35.575 45.237,35.300 45.833 C 35.025 46.429,34.719 47.067,34.620 47.250 C 33.929 48.524,33.532 49.416,33.603 49.532 C 33.649 49.606,33.623 49.667,33.546 49.667 C 33.468 49.667,33.272 49.892,33.110 50.167 C 32.947 50.442,32.852 50.667,32.898 50.667 C 32.943 50.667,32.353 51.904,31.586 53.416 C 30.819 54.928,30.165 56.297,30.132 56.458 C 30.098 56.629,29.700 55.989,29.174 54.917 C 28.680 53.908,28.232 53.046,28.180 53.000 C 28.127 52.954,28.062 52.804,28.036 52.667 C 27.970 52.320,27.447 51.272,27.277 51.148 C 27.201 51.092,27.152 51.017,27.168 50.981 C 27.205 50.900,26.788 49.946,26.667 49.833 C 26.574 49.748,26.117 48.815,26.095 48.667 C 26.057 48.416,24.253 44.908,24.138 44.861 C 24.062 44.831,24.000 44.691,24.000 44.550 C 24.000 44.410,23.856 44.023,23.679 43.689 C 23.503 43.356,23.111 42.558,22.809 41.917 C 22.508 41.275,22.197 40.705,22.119 40.650 C 22.041 40.595,21.961 40.445,21.941 40.317 C 21.920 40.188,21.671 39.596,21.386 39.000 C 20.427 36.990,17.735 31.228,16.987 29.583 C 16.821 29.217,16.643 28.804,16.593 28.667 C 16.543 28.529,16.415 28.267,16.308 28.083 C 16.201 27.900,16.060 27.637,15.995 27.500 C 15.919 27.340,15.672 27.261,15.313 27.280 C 14.048 27.348,10.761 27.327,8.333 27.235 C 6.912 27.182,5.694 27.194,5.625 27.263 M119.763 27.292 C 119.710 27.345,119.667 27.753,119.667 28.199 C 119.667 29.200,119.953 29.351,121.780 29.316 C 123.601 29.280,124.317 29.682,124.719 30.964 C 125.167 32.394,125.084 60.278,124.629 61.109 C 124.154 61.977,123.378 62.332,121.462 62.557 L 119.750 62.758 119.750 63.671 L 119.750 64.583 121.167 64.569 C 121.946 64.562,123.971 64.541,125.667 64.523 C 127.362 64.505,129.669 64.541,130.792 64.603 L 132.833 64.715 132.833 63.713 L 132.833 62.710 132.208 62.607 C 131.865 62.550,131.266 62.503,130.877 62.502 C 129.184 62.497,128.036 61.813,127.799 60.667 C 127.751 60.438,127.693 60.175,127.670 60.083 C 127.519 59.492,127.690 34.495,127.844 34.590 C 127.942 34.651,127.982 34.740,127.933 34.790 C 127.883 34.839,127.991 35.087,128.172 35.340 C 128.352 35.594,128.500 35.865,128.500 35.942 C 128.499 36.068,128.912 36.984,129.390 37.917 C 129.813 38.742,130.829 40.853,131.316 41.917 C 131.610 42.558,131.934 43.233,132.037 43.417 C 132.477 44.205,136.185 51.885,137.227 54.168 C 137.374 54.488,137.564 54.862,137.650 55.000 C 137.736 55.137,138.031 55.737,138.304 56.333 C 138.577 56.929,139.196 58.242,139.679 59.250 C 140.162 60.258,140.576 61.181,140.599 61.300 C 140.621 61.420,140.748 61.682,140.880 61.884 C 141.012 62.086,141.402 62.907,141.747 63.709 C 142.371 65.162,142.375 65.167,142.983 65.167 C 143.576 65.167,144.500 63.768,144.500 62.869 C 144.500 62.751,144.621 62.470,144.769 62.244 C 144.917 62.018,144.973 61.832,144.894 61.831 C 144.815 61.829,144.830 61.773,144.927 61.706 C 145.024 61.638,145.280 61.133,145.496 60.583 C 145.711 60.033,145.943 59.508,146.010 59.417 C 146.213 59.139,147.812 55.500,147.730 55.500 C 147.689 55.500,147.845 55.220,148.077 54.878 C 148.310 54.536,148.500 54.197,148.500 54.125 C 148.500 53.985,149.757 51.258,150.016 50.833 C 150.100 50.696,150.255 50.396,150.361 50.167 C 150.959 48.868,151.923 46.841,152.777 45.085 C 153.312 43.986,153.755 43.049,153.761 43.002 C 153.774 42.897,155.815 38.680,156.021 38.333 C 156.102 38.196,156.255 37.896,156.361 37.667 C 156.466 37.438,156.820 36.691,157.147 36.007 C 157.473 35.323,157.756 34.656,157.776 34.524 C 157.795 34.392,157.929 34.167,158.072 34.023 C 158.461 33.634,158.471 59.477,158.082 60.785 C 157.828 61.640,157.364 62.108,156.613 62.267 C 155.170 62.572,154.529 62.667,153.894 62.667 L 153.167 62.667 153.167 63.689 L 153.167 64.712 155.792 64.599 C 159.218 64.452,163.878 64.452,166.542 64.600 L 168.667 64.717 168.667 63.692 C 168.667 62.744,168.638 62.666,168.292 62.653 C 165.254 62.539,164.103 62.135,163.725 61.048 C 163.422 60.177,163.396 32.307,163.698 31.002 C 164.014 29.633,164.670 29.309,167.208 29.271 L 168.583 29.250 168.632 28.234 L 168.681 27.219 163.341 27.234 C 160.403 27.243,158.000 27.310,158.000 27.384 C 158.000 27.518,157.594 28.468,156.986 29.761 C 156.810 30.134,156.667 30.495,156.667 30.564 C 156.667 30.633,156.179 31.706,155.583 32.948 C 154.987 34.190,154.500 35.240,154.500 35.281 C 154.500 35.322,154.058 36.269,153.517 37.386 C 152.357 39.784,150.980 42.755,150.915 43.000 C 150.841 43.281,150.400 44.127,150.205 44.360 C 150.078 44.513,149.960 44.741,149.941 44.867 C 149.923 44.994,149.741 45.379,149.537 45.725 C 149.333 46.070,149.167 46.446,149.167 46.560 C 149.167 46.673,149.077 46.857,148.967 46.967 C 148.857 47.077,148.838 47.168,148.925 47.169 C 149.012 47.171,148.999 47.227,148.896 47.294 C 148.750 47.389,145.999 52.799,145.909 53.167 C 145.867 53.340,145.494 54.093,145.332 54.333 C 145.239 54.471,144.970 55.032,144.733 55.581 C 144.330 56.515,144.288 56.557,144.074 56.248 C 143.948 56.066,143.786 55.839,143.714 55.743 C 143.642 55.648,143.559 55.461,143.528 55.327 C 143.431 54.894,141.454 50.918,141.308 50.861 C 141.230 50.831,141.167 50.699,141.167 50.568 C 141.167 50.437,140.874 49.750,140.515 49.040 C 139.006 46.051,137.000 41.868,137.000 41.711 C 137.000 41.617,136.892 41.451,136.760 41.342 C 136.628 41.232,136.316 40.623,136.067 39.988 C 135.818 39.353,135.559 38.833,135.492 38.833 C 135.424 38.833,135.322 38.646,135.265 38.416 C 135.207 38.187,134.704 37.043,134.146 35.874 C 132.453 32.327,131.098 29.386,130.422 27.786 L 130.226 27.323 125.043 27.259 C 122.192 27.224,119.816 27.239,119.763 27.292 M181.169 28.030 C 181.173 29.247,181.196 29.263,183.072 29.306 C 184.845 29.346,185.604 29.623,186.044 30.390 C 186.268 30.782,186.455 59.053,186.244 60.813 C 186.125 61.815,185.748 62.282,184.651 62.787 C 184.042 63.068,184.008 63.123,184.004 63.856 L 184.000 64.629 186.208 64.523 C 188.510 64.412,190.970 64.411,197.417 64.517 C 200.263 64.564,201.507 64.521,202.250 64.351 C 202.800 64.225,203.457 64.104,203.710 64.081 C 204.390 64.021,206.439 63.365,207.583 62.841 C 208.133 62.589,208.868 62.280,209.216 62.155 C 209.564 62.030,209.992 61.794,210.167 61.631 C 210.343 61.467,210.553 61.333,210.636 61.333 C 211.177 61.333,216.000 56.980,216.000 56.492 C 216.000 56.418,216.127 56.231,216.281 56.076 C 216.846 55.512,218.522 52.156,218.771 51.094 C 218.833 50.826,218.985 50.413,219.108 50.178 C 219.231 49.942,219.332 49.581,219.332 49.375 C 219.333 49.169,219.447 48.339,219.587 47.532 C 220.440 42.585,219.372 37.490,216.705 33.785 C 215.510 32.125,212.550 29.513,212.146 29.763 C 212.066 29.812,212.000 29.781,212.000 29.694 C 212.000 29.473,210.355 28.633,210.159 28.754 C 210.072 28.809,210.000 28.774,210.000 28.677 C 210.000 28.579,209.944 28.516,209.875 28.535 C 209.806 28.555,209.600 28.487,209.416 28.385 C 208.984 28.144,206.143 27.468,206.032 27.579 C 205.985 27.626,205.855 27.587,205.741 27.493 C 205.520 27.309,198.707 27.219,190.583 27.292 C 188.017 27.315,184.848 27.291,183.542 27.239 L 181.167 27.144 181.169 28.030 M283.336 28.083 C 283.340 29.274,283.370 29.294,285.182 29.296 C 286.966 29.298,287.578 29.507,288.152 30.312 C 288.495 30.794,288.496 30.864,288.456 46.255 L 288.417 61.714 287.950 62.065 C 287.693 62.259,287.206 62.573,286.867 62.764 C 286.308 63.078,286.245 63.186,286.199 63.900 L 286.148 64.688 288.199 64.552 C 290.344 64.410,293.219 64.401,299.500 64.515 C 303.899 64.595,306.293 64.266,309.000 63.210 C 309.137 63.156,309.287 63.099,309.333 63.083 C 310.573 62.655,313.535 61.095,313.639 60.816 C 313.669 60.734,313.776 60.667,313.875 60.667 C 314.079 60.667,314.066 60.678,316.030 58.829 C 317.544 57.404,318.555 56.136,319.374 54.640 C 319.641 54.150,319.967 53.584,320.097 53.381 C 320.227 53.178,320.333 52.927,320.333 52.823 C 320.333 52.719,320.444 52.397,320.580 52.109 C 322.682 47.626,322.416 39.553,320.033 35.500 C 319.790 35.087,319.590 34.711,319.588 34.663 C 319.585 34.615,319.415 34.394,319.208 34.173 C 319.002 33.952,318.833 33.707,318.833 33.630 C 318.833 33.443,316.713 31.330,316.107 30.912 C 315.844 30.731,315.544 30.506,315.440 30.411 C 315.054 30.061,314.148 29.468,313.952 29.436 C 313.841 29.418,313.563 29.283,313.333 29.136 C 313.104 28.989,312.729 28.817,312.500 28.754 C 312.271 28.691,311.827 28.524,311.514 28.382 C 310.819 28.068,308.717 27.540,307.583 27.396 C 307.125 27.337,301.481 27.280,295.042 27.270 L 283.333 27.250 283.336 28.083 M88.520 29.238 C 88.761 29.088,91.495 29.827,92.637 30.350 C 93.216 30.616,93.753 30.833,93.831 30.833 C 93.909 30.833,93.997 30.890,94.028 30.958 C 94.058 31.027,94.421 31.307,94.833 31.580 C 95.520 32.035,97.667 34.084,97.667 34.283 C 97.667 34.356,97.910 34.681,98.659 35.607 C 98.744 35.712,98.768 35.843,98.712 35.899 C 98.657 35.955,98.699 36.000,98.806 36.000 C 98.913 36.000,99.000 36.120,99.000 36.266 C 99.000 36.412,99.138 36.731,99.306 36.974 C 101.823 40.617,101.771 50.955,99.211 55.833 C 98.081 57.986,95.539 60.833,94.747 60.833 C 94.685 60.833,94.436 60.971,94.192 61.139 C 91.841 62.764,85.438 63.071,82.710 61.689 C 82.549 61.608,81.892 61.288,81.250 60.979 C 80.608 60.670,80.046 60.379,80.000 60.332 C 79.954 60.286,79.617 60.027,79.250 59.756 C 78.883 59.485,78.246 58.889,77.833 58.431 C 77.421 57.974,76.883 57.389,76.638 57.133 C 76.393 56.877,76.233 56.667,76.283 56.667 C 76.332 56.667,76.194 56.423,75.974 56.125 C 74.702 54.396,73.589 51.404,72.983 48.083 C 72.465 45.246,72.880 39.704,73.764 37.660 C 73.904 37.335,74.038 36.960,74.061 36.826 C 74.138 36.374,75.151 34.749,75.911 33.858 C 76.327 33.371,76.667 32.909,76.667 32.831 C 76.667 32.753,76.798 32.646,76.958 32.592 C 77.119 32.539,77.550 32.233,77.917 31.913 C 78.283 31.592,78.715 31.288,78.875 31.237 C 79.035 31.186,79.167 31.074,79.167 30.989 C 79.167 30.903,79.279 30.833,79.417 30.833 C 79.554 30.833,79.667 30.754,79.667 30.657 C 79.667 30.560,79.740 30.525,79.829 30.580 C 79.918 30.635,80.167 30.565,80.383 30.424 C 81.134 29.931,83.518 29.339,85.146 29.240 C 86.026 29.187,86.768 29.121,86.795 29.094 C 86.822 29.067,87.187 29.109,87.607 29.188 C 88.027 29.266,88.437 29.289,88.520 29.238 M201.833 29.902 C 204.317 30.285,207.872 31.751,209.276 32.972 C 209.557 33.217,210.028 33.616,210.323 33.859 C 210.618 34.103,210.852 34.348,210.843 34.404 C 210.834 34.460,210.904 34.599,210.998 34.712 C 211.453 35.254,211.916 35.924,212.162 36.396 C 212.311 36.682,212.515 37.067,212.615 37.250 C 215.100 41.802,214.169 52.671,210.973 56.410 C 210.400 57.081,208.682 58.833,208.597 58.833 C 208.545 58.833,208.150 59.103,207.718 59.432 C 206.908 60.050,205.496 60.805,204.925 60.925 C 204.746 60.963,204.349 61.113,204.043 61.258 C 203.736 61.404,203.145 61.555,202.728 61.594 C 202.312 61.633,201.904 61.706,201.821 61.758 C 201.317 62.069,196.630 62.202,194.583 61.963 C 192.762 61.750,191.992 61.621,191.930 61.518 C 191.596 60.955,191.403 33.343,191.718 31.142 C 191.873 30.060,191.796 30.096,194.333 29.908 C 195.112 29.851,195.774 29.780,195.803 29.752 C 195.974 29.584,200.504 29.697,201.833 29.902 M303.723 29.833 C 306.514 30.282,308.640 31.089,310.751 32.504 C 311.763 33.181,313.284 34.500,313.055 34.500 C 313.012 34.500,313.075 34.603,313.196 34.728 C 313.638 35.184,314.093 35.754,314.147 35.917 C 314.178 36.008,314.345 36.363,314.519 36.704 C 315.026 37.699,315.679 39.533,315.756 40.182 C 315.795 40.512,315.937 41.299,316.070 41.932 C 316.350 43.262,316.326 47.613,316.031 48.837 C 315.931 49.252,315.833 49.889,315.813 50.254 C 315.793 50.618,315.722 50.992,315.655 51.083 C 315.589 51.175,315.421 51.633,315.283 52.102 C 315.007 53.038,313.777 55.596,313.403 56.013 C 313.273 56.158,313.167 56.335,313.167 56.408 C 313.167 56.605,310.335 59.309,309.844 59.581 C 308.176 60.503,305.843 61.500,305.352 61.500 C 305.167 61.500,304.581 61.619,304.050 61.764 C 302.212 62.267,294.756 62.084,294.135 61.521 C 293.773 61.192,293.551 34.037,293.888 31.297 C 294.045 30.019,293.898 30.102,296.329 29.912 C 297.014 29.858,297.593 29.796,297.616 29.773 C 297.762 29.627,302.746 29.676,303.723 29.833 M250.494 35.917 C 250.581 36.100,250.999 37.072,251.421 38.076 C 251.844 39.081,252.349 40.243,252.544 40.660 C 252.739 41.076,252.882 41.478,252.862 41.554 C 252.842 41.629,252.968 41.966,253.141 42.304 C 253.315 42.641,253.608 43.292,253.792 43.750 C 253.977 44.208,254.290 44.958,254.489 45.417 C 254.688 45.875,254.844 46.308,254.834 46.380 C 254.825 46.451,254.967 46.788,255.150 47.130 C 255.611 47.989,256.167 49.279,256.167 49.491 C 256.167 49.611,254.164 49.667,249.833 49.667 C 246.350 49.667,243.500 49.607,243.500 49.533 C 243.500 49.460,243.563 49.329,243.640 49.242 C 243.717 49.155,243.878 48.821,243.998 48.500 C 244.240 47.853,244.559 47.090,245.008 46.083 C 245.171 45.717,245.468 45.004,245.668 44.500 C 245.867 43.996,246.192 43.214,246.390 42.764 C 246.588 42.313,246.751 41.900,246.753 41.847 C 246.754 41.794,246.800 41.675,246.855 41.583 C 247.032 41.288,248.148 38.592,248.200 38.333 C 248.227 38.196,248.300 38.046,248.360 37.999 C 248.470 37.915,248.989 36.674,249.440 35.417 C 249.571 35.050,249.721 34.637,249.774 34.500 C 249.836 34.337,249.950 34.481,250.102 34.917 C 250.229 35.283,250.406 35.733,250.494 35.917 " stroke="none" fill="#c4248c" fill-rule="evenodd"></path><path id="path1" d="M28.137 78.828 C 23.499 79.665,20.184 85.592,22.361 89.157 C 22.562 89.486,22.536 89.561,22.083 89.943 C 19.435 92.175,18.667 93.578,18.667 96.179 C 18.667 101.443,24.804 103.190,29.699 99.320 C 30.037 99.052,30.362 98.833,30.422 98.833 C 30.548 98.833,31.367 98.098,33.280 96.267 C 34.320 95.272,34.782 94.942,35.174 94.911 C 35.576 94.879,35.991 94.566,37.031 93.509 C 37.768 92.761,38.393 92.171,38.422 92.199 C 38.477 92.255,38.192 93.402,37.770 94.822 C 37.454 95.882,37.398 99.095,37.685 99.724 C 38.472 101.450,41.271 100.126,44.850 96.336 L 46.240 94.863 46.662 95.158 C 47.689 95.878,49.345 95.946,50.123 95.301 C 50.281 95.169,50.333 95.214,50.333 95.484 C 50.333 99.258,55.048 100.166,58.727 97.100 C 58.958 96.907,59.465 96.487,59.854 96.167 C 60.243 95.846,60.677 95.452,60.818 95.292 C 60.959 95.131,61.257 95.000,61.481 95.000 C 61.761 95.000,62.230 94.659,62.972 93.917 C 64.235 92.654,64.190 92.678,63.982 93.375 C 63.893 93.673,63.713 94.292,63.583 94.750 C 63.453 95.208,63.156 96.108,62.924 96.750 C 62.285 98.514,62.374 99.000,63.335 99.000 C 63.616 99.000,64.833 98.009,64.833 97.780 C 64.833 97.726,65.002 97.505,65.208 97.289 C 68.929 93.387,69.431 92.938,71.036 92.085 C 72.882 91.103,73.071 91.946,71.668 94.914 C 68.780 101.029,71.776 101.976,77.333 96.705 C 78.112 95.966,78.764 95.449,78.781 95.556 C 78.799 95.662,78.861 96.189,78.921 96.726 C 79.121 98.543,80.583 99.462,82.565 99.019 C 84.769 98.525,89.402 94.461,89.106 93.280 C 88.891 92.426,88.076 92.653,86.736 93.940 C 84.239 96.337,82.261 97.643,81.442 97.438 C 80.278 97.146,80.291 95.416,81.475 93.076 C 81.751 92.530,82.175 91.690,82.417 91.208 L 82.858 90.333 84.501 90.333 C 86.681 90.333,87.036 90.195,86.968 89.375 L 86.917 88.750 85.366 88.702 L 83.815 88.654 84.721 86.952 C 85.219 86.016,85.940 84.666,86.324 83.953 C 87.221 82.281,87.220 81.609,86.319 81.533 C 85.612 81.474,85.574 81.513,84.654 83.252 C 84.267 83.984,83.670 85.108,83.328 85.750 C 82.986 86.392,82.501 87.307,82.250 87.785 L 81.793 88.653 80.539 88.702 C 79.153 88.755,78.868 88.951,79.061 89.719 C 79.155 90.094,79.285 90.171,79.985 90.264 L 80.800 90.372 80.191 91.599 C 79.693 92.605,79.512 92.827,79.187 92.830 C 78.814 92.833,78.400 93.181,76.105 95.421 C 75.188 96.316,72.990 98.080,72.625 98.215 C 72.252 98.353,72.246 98.043,72.609 97.214 C 73.177 95.913,73.567 95.064,73.885 94.436 C 74.442 93.337,74.387 91.145,73.788 90.545 C 72.896 89.655,69.273 90.247,68.861 91.351 C 68.831 91.433,68.718 91.500,68.611 91.501 C 68.410 91.502,67.860 91.967,66.403 93.368 L 65.557 94.183 65.852 93.050 C 66.266 91.464,66.259 90.259,65.833 89.833 C 65.099 89.099,64.559 89.417,62.514 91.792 C 61.866 92.544,61.503 92.833,61.207 92.833 C 60.926 92.833,60.383 93.222,59.489 94.063 C 57.368 96.059,55.171 97.333,53.853 97.333 C 52.249 97.333,51.442 94.664,52.917 94.237 C 57.790 92.827,60.338 88.969,57.041 87.991 C 54.765 87.315,51.709 89.532,50.768 92.542 C 50.718 92.702,50.536 92.833,50.364 92.833 C 50.192 92.833,49.909 92.991,49.734 93.185 C 48.985 94.013,48.525 94.222,48.083 93.932 C 47.341 93.446,47.299 93.148,47.767 91.723 C 48.479 89.554,48.086 87.977,46.804 87.867 C 45.552 87.759,44.808 89.480,45.141 91.718 C 45.313 92.877,45.310 92.890,44.787 93.651 C 43.804 95.082,39.843 98.667,39.245 98.667 C 38.942 98.667,39.398 95.256,39.914 93.667 C 41.072 90.095,41.015 89.333,39.589 89.333 C 38.874 89.333,38.170 89.848,36.229 91.792 C 35.455 92.567,35.071 92.833,34.728 92.833 C 34.370 92.833,33.878 93.212,32.509 94.542 C 30.495 96.497,29.365 97.500,29.173 97.500 C 29.101 97.500,28.949 97.611,28.836 97.747 C 28.117 98.613,25.675 99.555,24.148 99.555 C 20.904 99.556,19.185 96.398,21.020 93.808 C 21.192 93.564,21.333 93.298,21.333 93.215 C 21.333 92.995,22.587 91.767,23.356 91.234 C 24.002 90.786,24.055 90.778,24.980 90.969 C 27.884 91.569,30.165 90.098,28.847 88.477 C 28.423 87.954,25.987 87.918,24.936 88.418 C 24.303 88.719,24.283 88.719,24.043 88.405 C 21.803 85.474,25.640 80.333,30.067 80.333 C 31.809 80.333,32.298 81.575,31.014 82.738 C 30.042 83.617,31.069 84.817,32.147 84.062 C 33.830 82.883,33.955 80.113,32.372 79.067 C 31.851 78.722,29.470 78.588,28.137 78.828 M142.374 78.839 C 140.724 79.502,138.366 84.439,137.751 88.521 L 137.659 89.125 136.955 88.880 C 134.839 88.142,132.014 89.575,130.830 91.986 C 130.507 92.643,130.330 92.829,130.020 92.831 C 129.647 92.833,129.237 93.178,126.938 95.421 C 126.021 96.316,123.824 98.080,123.458 98.215 C 123.085 98.353,123.080 98.043,123.442 97.214 C 124.044 95.836,124.406 95.054,124.737 94.417 C 125.303 93.326,125.239 91.164,124.621 90.546 C 123.730 89.655,120.107 90.247,119.694 91.351 C 119.664 91.433,119.551 91.500,119.444 91.501 C 119.243 91.502,118.693 91.967,117.237 93.368 L 116.390 94.183 116.685 93.050 C 117.099 91.464,117.092 90.259,116.667 89.833 C 115.932 89.099,115.393 89.417,113.347 91.792 C 112.682 92.564,112.338 92.835,112.017 92.839 C 111.711 92.843,111.190 93.213,110.250 94.097 C 108.647 95.602,106.819 96.879,106.590 96.654 C 106.072 96.144,106.797 92.853,107.710 91.570 C 108.953 89.822,108.143 88.295,106.762 89.784 L 106.344 90.235 105.964 89.887 C 104.549 88.593,102.426 88.708,100.398 90.188 C 99.645 90.738,98.333 92.257,98.333 92.580 C 98.333 92.645,98.198 92.898,98.033 93.141 C 96.842 94.895,96.924 98.115,98.184 99.012 C 99.520 99.964,100.967 99.414,103.292 97.073 L 104.833 95.521 104.833 96.235 C 104.833 98.493,106.533 99.185,108.582 97.763 C 109.384 97.206,111.409 95.561,111.651 95.269 C 111.774 95.121,112.065 95.000,112.298 95.000 C 112.598 95.000,113.040 94.682,113.806 93.917 C 115.068 92.654,115.023 92.678,114.815 93.375 C 114.726 93.673,114.547 94.292,114.417 94.750 C 114.286 95.208,113.990 96.108,113.757 96.750 C 113.118 98.514,113.207 99.000,114.168 99.000 C 114.450 99.000,115.667 98.009,115.667 97.780 C 115.667 97.726,115.835 97.505,116.042 97.289 C 119.763 93.387,120.265 92.938,121.869 92.085 C 123.719 91.101,123.904 91.944,122.496 94.942 C 119.601 101.107,122.610 101.987,128.250 96.624 L 129.750 95.197 129.838 96.224 C 130.054 98.739,131.990 100.016,134.119 99.046 C 134.852 98.713,136.731 97.286,137.065 96.809 C 137.279 96.504,137.312 96.535,137.586 97.295 C 137.907 98.189,138.650 98.833,139.359 98.833 C 139.828 98.833,141.833 97.887,141.833 97.666 C 141.833 97.588,141.942 97.500,142.076 97.471 C 142.855 97.297,145.851 94.121,145.801 93.521 C 145.710 92.436,144.901 92.557,143.522 93.863 C 142.097 95.213,141.000 96.167,140.872 96.167 C 140.817 96.167,140.614 96.315,140.421 96.496 C 139.654 97.216,139.281 97.034,139.024 95.814 L 138.793 94.712 139.795 93.231 C 145.531 84.757,146.919 77.012,142.374 78.839 M166.417 78.830 C 165.604 79.039,163.861 79.931,163.083 80.536 C 160.169 82.800,156.500 87.592,156.500 89.132 C 156.500 89.252,156.386 89.571,156.246 89.840 C 154.808 92.623,155.416 98.301,157.296 99.640 C 159.549 101.245,164.670 100.635,166.975 98.488 C 167.164 98.311,167.368 98.167,167.428 98.167 C 167.572 98.167,169.068 96.946,169.958 96.102 L 170.667 95.431 170.667 96.379 C 170.667 100.375,173.952 100.427,177.417 96.486 L 178.250 95.537 178.292 96.144 C 178.427 98.093,179.399 98.863,181.017 98.305 C 181.681 98.075,182.154 97.759,183.791 96.448 L 185.000 95.479 185.003 96.031 C 185.021 100.109,188.728 100.194,193.132 96.217 L 194.276 95.184 194.490 96.263 C 194.665 97.145,194.836 97.488,195.418 98.130 L 196.130 98.917 197.857 98.909 C 200.058 98.899,203.145 97.285,204.818 95.269 C 204.941 95.121,205.238 95.000,205.479 95.000 C 205.965 95.000,207.588 93.394,208.766 91.747 C 209.215 91.121,209.494 90.871,209.667 90.942 C 209.804 90.999,210.393 91.183,210.976 91.350 C 212.781 91.870,212.792 92.256,211.067 94.605 C 209.356 96.935,209.060 98.161,209.975 99.139 C 210.759 99.980,212.511 99.983,213.692 99.147 C 213.936 98.974,214.186 98.833,214.250 98.833 C 214.474 98.833,217.429 96.514,218.233 95.708 C 218.847 95.092,219.144 94.907,219.430 94.962 C 219.711 95.015,220.032 94.827,220.654 94.246 L 221.497 93.457 221.238 94.270 C 220.679 96.022,220.634 96.267,220.705 97.130 C 220.945 100.023,224.216 99.587,227.833 96.179 C 228.682 95.379,229.215 95.001,229.494 95.001 C 229.782 95.000,230.248 94.648,231.058 93.820 C 231.693 93.172,232.163 92.770,232.102 92.928 C 232.042 93.086,231.847 93.748,231.669 94.399 C 231.491 95.050,231.156 96.108,230.924 96.750 C 230.282 98.523,230.373 99.000,231.350 99.000 C 231.653 99.000,232.096 98.601,233.232 97.301 C 234.760 95.555,237.147 93.223,237.933 92.710 C 240.864 90.796,241.288 91.526,239.456 95.333 C 238.631 97.049,238.430 99.458,239.074 99.929 C 240.183 100.743,242.390 99.545,245.750 96.302 L 246.917 95.177 247.028 95.797 C 247.540 98.660,250.562 98.978,253.413 96.468 C 254.269 95.715,254.292 95.749,253.833 97.083 C 253.650 97.616,253.500 98.179,253.500 98.333 C 253.500 98.528,253.131 98.754,252.292 99.075 C 248.414 100.554,247.540 101.002,246.278 102.163 C 243.841 104.402,244.889 107.500,248.083 107.500 C 250.730 107.500,252.725 105.424,254.519 100.801 C 254.807 100.057,254.999 99.806,255.402 99.644 C 256.220 99.313,259.159 97.331,260.083 96.486 C 261.501 95.190,262.667 93.916,262.667 93.663 C 262.667 92.544,261.589 92.482,260.569 93.542 C 260.195 93.932,259.569 94.513,259.179 94.833 C 258.789 95.154,258.383 95.493,258.277 95.586 C 257.725 96.068,256.687 96.833,256.586 96.833 C 256.522 96.833,256.277 96.984,256.043 97.169 C 255.483 97.609,255.442 97.532,255.767 96.651 C 255.916 96.247,256.099 95.654,256.174 95.333 C 256.303 94.776,256.997 92.786,257.306 92.083 C 257.387 91.900,257.733 91.158,258.076 90.434 C 258.592 89.343,258.668 89.052,258.521 88.730 C 258.279 88.198,257.581 88.042,257.156 88.426 C 256.844 88.708,256.793 88.709,256.241 88.446 C 255.506 88.096,253.823 88.090,252.917 88.435 C 252.550 88.574,252.100 88.734,251.917 88.789 C 251.539 88.903,250.394 89.623,249.992 90.000 C 249.846 90.138,249.506 90.452,249.238 90.698 C 248.649 91.239,248.517 91.403,248.023 92.208 C 247.737 92.675,247.527 92.835,247.195 92.838 C 246.861 92.842,246.316 93.259,245.019 94.505 C 244.067 95.419,243.255 96.167,243.214 96.167 C 243.174 96.167,242.910 96.397,242.628 96.680 C 241.897 97.410,240.428 98.368,240.359 98.159 C 240.275 97.909,240.960 96.236,241.882 94.436 C 242.443 93.341,242.389 91.147,241.788 90.545 C 240.900 89.659,236.833 90.337,236.833 91.372 C 236.833 91.443,236.740 91.500,236.625 91.501 C 236.410 91.502,235.877 91.950,234.388 93.383 L 233.526 94.213 233.846 92.993 C 234.969 88.717,233.352 88.331,230.213 92.125 C 229.758 92.675,229.513 92.833,229.119 92.833 C 228.705 92.833,228.347 93.095,227.181 94.250 C 226.394 95.029,225.636 95.774,225.496 95.906 C 225.051 96.325,223.280 97.333,222.989 97.333 C 222.048 97.333,222.457 95.558,224.588 90.386 C 224.947 89.514,224.816 88.877,224.247 88.734 C 223.487 88.544,223.094 88.826,221.333 90.834 C 219.843 92.532,219.509 92.830,219.083 92.838 C 218.686 92.845,218.243 93.172,216.917 94.434 C 214.861 96.391,212.373 98.114,211.542 98.156 C 211.206 98.173,211.299 97.249,211.667 96.917 C 211.850 96.751,212.000 96.547,212.000 96.464 C 212.000 96.382,212.220 96.037,212.488 95.699 C 213.514 94.405,214.019 93.235,214.051 92.080 C 214.090 90.690,213.796 90.397,211.704 89.736 C 210.432 89.334,210.167 89.192,210.167 88.912 C 210.165 87.294,207.968 87.477,207.934 89.099 C 207.916 89.959,207.720 90.303,206.256 92.047 C 205.773 92.623,205.477 92.833,205.152 92.833 C 204.907 92.833,204.605 92.958,204.479 93.110 C 204.279 93.352,201.868 95.474,201.417 95.805 C 198.987 97.589,196.999 97.767,196.316 96.263 C 195.735 94.984,196.036 94.167,197.087 94.167 C 197.738 94.167,200.529 92.624,201.377 91.795 C 204.118 89.117,201.207 86.597,197.711 88.620 C 196.493 89.325,194.667 91.722,194.667 92.616 C 194.667 92.736,194.542 92.833,194.390 92.833 C 194.238 92.833,193.692 93.227,193.178 93.708 C 191.388 95.381,190.484 96.167,190.346 96.167 C 190.270 96.167,190.109 96.285,189.989 96.430 C 189.187 97.397,187.686 97.686,187.098 96.987 C 186.391 96.147,186.569 95.314,188.121 92.208 L 189.059 90.333 190.768 90.333 C 192.945 90.333,193.333 90.198,193.333 89.439 C 193.333 88.727,193.184 88.667,191.405 88.667 L 190.004 88.667 190.527 87.708 C 190.815 87.181,191.329 86.225,191.669 85.583 C 192.009 84.942,192.533 83.957,192.834 83.396 C 193.580 82.001,193.470 81.459,192.454 81.532 C 191.826 81.578,191.717 81.653,191.403 82.250 C 191.210 82.617,190.760 83.457,190.401 84.117 C 190.043 84.778,189.620 85.565,189.461 85.867 C 189.302 86.170,188.898 86.920,188.562 87.535 L 187.951 88.654 186.684 88.702 L 185.417 88.750 185.363 89.313 C 185.297 90.006,185.424 90.141,186.286 90.295 L 186.964 90.417 186.382 91.625 C 185.942 92.537,185.716 92.833,185.461 92.833 C 185.274 92.833,184.851 93.090,184.519 93.403 C 182.948 94.889,182.504 95.266,181.437 96.018 C 180.074 96.979,180.000 96.957,180.000 95.591 C 180.000 94.180,180.546 92.483,181.349 91.396 C 182.140 90.324,182.230 89.564,181.583 89.402 C 180.959 89.245,180.422 89.440,180.168 89.915 L 179.941 90.339 179.512 89.938 C 177.516 88.074,173.251 89.448,171.957 92.371 C 171.798 92.730,171.639 92.833,171.246 92.833 C 170.846 92.833,170.530 93.047,169.745 93.849 C 168.796 94.817,166.781 96.523,166.080 96.952 C 160.666 100.262,157.158 99.335,157.171 94.598 C 157.173 93.765,157.240 92.821,157.319 92.500 C 158.208 88.920,159.434 86.616,161.741 84.189 C 166.301 79.392,170.553 79.144,168.798 83.777 C 168.291 85.115,167.271 86.555,167.197 86.038 C 167.025 84.843,164.878 85.442,164.237 86.863 C 162.894 89.841,167.367 89.607,169.302 86.597 C 172.329 81.887,170.776 77.706,166.417 78.830 M280.250 79.313 C 276.219 80.543,273.754 83.920,274.752 86.845 C 275.093 87.845,276.134 88.937,277.833 90.075 C 278.612 90.597,279.428 91.150,279.646 91.304 C 281.296 92.466,282.444 94.459,282.277 95.869 C 282.153 96.915,282.510 96.771,279.500 96.986 C 273.169 97.439,271.700 97.971,271.408 99.917 C 270.863 103.551,276.404 104.522,280.693 101.544 C 281.510 100.977,283.000 99.383,283.000 99.076 C 283.000 98.711,283.689 98.167,284.151 98.167 C 285.216 98.167,288.785 96.445,289.496 95.588 C 289.843 95.170,289.944 95.284,290.169 96.345 C 290.337 97.137,290.537 97.526,291.090 98.137 L 291.797 98.917 293.523 98.909 C 295.762 98.899,298.564 97.423,300.546 95.211 C 300.745 94.989,300.979 94.907,301.262 94.962 C 301.742 95.053,303.290 93.553,304.542 91.785 C 305.039 91.081,305.296 90.850,305.487 90.933 C 305.632 90.995,306.234 91.185,306.826 91.355 C 308.389 91.805,308.436 91.891,307.812 93.131 C 307.525 93.701,307.225 94.167,307.145 94.167 C 307.065 94.167,307.000 94.241,307.000 94.332 C 307.000 94.423,306.734 94.845,306.410 95.270 C 304.930 97.210,304.962 99.159,306.483 99.661 C 308.063 100.182,310.702 98.842,313.761 95.965 C 314.595 95.180,314.972 94.933,315.274 94.972 C 315.589 95.014,315.984 94.716,317.110 93.590 C 318.743 91.957,318.715 91.968,318.417 93.084 C 318.295 93.542,318.077 94.364,317.931 94.910 C 317.623 96.067,317.573 99.112,317.852 99.724 C 318.394 100.913,320.106 100.614,322.228 98.960 C 323.236 98.174,325.610 95.853,326.024 95.249 L 326.382 94.727 326.776 95.092 C 327.683 95.934,329.683 95.977,330.413 95.171 C 330.575 94.992,330.828 94.910,331.076 94.958 C 331.382 95.016,331.678 94.847,332.322 94.244 C 332.787 93.810,333.167 93.499,333.167 93.554 C 333.167 93.609,333.004 94.088,332.806 94.618 C 330.992 99.466,334.994 100.584,339.231 96.413 C 340.367 95.295,340.265 95.277,340.402 96.625 C 340.531 97.894,340.896 98.559,341.807 99.182 C 343.290 100.197,347.241 99.436,349.000 97.797 C 349.176 97.634,349.380 97.500,349.453 97.500 C 349.527 97.500,350.149 96.984,350.835 96.354 L 352.083 95.207 352.333 96.274 C 353.270 100.270,358.685 99.704,362.734 95.188 C 362.909 94.993,363.245 94.833,363.481 94.833 C 363.802 94.833,364.322 94.423,365.533 93.217 C 366.426 92.328,367.185 91.634,367.221 91.675 C 367.453 91.940,368.383 95.039,368.398 95.596 C 368.443 97.245,367.125 98.300,365.669 97.783 C 364.491 97.365,364.030 97.406,363.895 97.942 C 363.398 99.925,367.820 100.202,371.167 98.398 C 372.726 97.557,376.500 94.157,376.500 93.593 C 376.500 92.310,375.325 92.512,373.738 94.068 C 372.493 95.289,370.774 96.641,370.192 96.856 C 369.912 96.960,369.900 96.912,370.046 96.272 C 370.224 95.494,369.958 94.003,369.327 92.250 C 368.888 91.033,368.948 89.878,369.486 89.150 C 370.432 87.871,369.147 86.530,368.176 87.783 C 366.946 89.370,363.431 92.833,363.050 92.833 C 362.767 92.833,362.209 93.230,361.277 94.093 C 357.729 97.379,355.102 98.182,354.173 96.263 C 353.560 94.997,353.856 94.167,354.920 94.167 C 355.571 94.167,358.362 92.624,359.211 91.795 C 361.951 89.117,359.040 86.597,355.544 88.620 C 354.315 89.331,352.500 91.747,352.500 92.672 C 352.500 92.761,352.374 92.833,352.221 92.833 C 352.067 92.833,351.409 93.340,350.759 93.958 C 348.914 95.712,348.458 96.072,347.000 96.925 C 342.898 99.326,340.408 96.950,343.000 93.109 C 344.342 91.120,347.675 89.252,347.396 90.644 C 347.238 91.437,347.724 92.167,348.411 92.167 C 349.118 92.167,349.500 91.684,349.500 90.791 C 349.500 87.148,343.996 88.100,341.482 92.178 C 341.199 92.636,340.966 92.826,340.681 92.829 C 340.402 92.832,339.854 93.257,338.901 94.208 C 334.752 98.350,333.439 98.429,334.740 94.459 C 335.273 92.831,335.450 92.373,336.186 90.704 C 336.887 89.114,335.791 87.831,334.708 88.975 C 333.572 90.175,331.560 92.417,331.450 92.605 C 331.377 92.731,331.062 92.833,330.751 92.833 C 330.396 92.833,330.104 92.946,329.968 93.135 C 328.776 94.788,327.144 94.038,327.841 92.158 C 328.885 89.345,327.962 87.039,326.176 87.995 C 325.494 88.360,325.067 90.262,325.318 91.820 C 325.485 92.854,325.478 92.888,324.958 93.645 C 324.058 94.953,320.681 98.167,320.206 98.167 C 320.115 98.167,319.947 98.279,319.833 98.417 C 319.089 99.314,319.249 96.229,320.080 93.667 C 321.037 90.717,321.126 90.126,320.682 89.682 C 319.866 88.866,318.626 89.487,316.297 91.875 C 315.605 92.584,315.243 92.833,314.903 92.833 C 314.568 92.833,314.146 93.115,313.344 93.875 C 311.790 95.346,310.830 96.167,310.661 96.167 C 310.582 96.167,310.457 96.263,310.383 96.381 C 310.226 96.633,308.850 97.514,307.957 97.935 C 306.644 98.553,306.767 97.667,308.261 95.742 C 310.992 92.222,310.447 90.312,306.458 89.428 C 306.124 89.354,306.000 89.225,306.000 88.951 C 306.000 87.970,304.899 87.489,304.037 88.093 C 303.738 88.302,303.667 88.513,303.667 89.187 C 303.667 90.044,303.359 90.627,302.358 91.667 C 302.137 91.896,301.845 92.252,301.709 92.458 C 301.536 92.720,301.297 92.833,300.918 92.833 C 300.614 92.833,300.273 92.955,300.145 93.110 C 299.945 93.352,297.535 95.474,297.083 95.805 C 294.653 97.589,292.666 97.767,291.983 96.263 C 291.399 94.978,291.702 94.167,292.765 94.167 C 293.391 94.167,296.244 92.577,297.073 91.766 C 299.787 89.114,296.847 86.612,293.378 88.620 C 292.159 89.325,290.333 91.722,290.333 92.616 C 290.333 92.736,290.227 92.833,290.098 92.833 C 289.968 92.833,289.597 93.090,289.274 93.404 C 287.915 94.724,285.858 95.935,284.458 96.240 C 284.015 96.336,284.000 96.316,283.994 95.628 C 283.972 92.975,282.698 91.131,279.376 88.943 C 276.689 87.174,276.209 86.556,276.374 85.084 C 276.740 81.838,283.321 79.292,285.355 81.608 C 286.437 82.839,286.444 84.772,285.374 86.449 C 285.025 86.996,285.172 87.549,285.717 87.740 C 287.877 88.497,288.643 82.335,286.639 80.331 C 285.406 79.098,282.481 78.632,280.250 79.313 M143.319 81.971 C 143.203 82.583,142.980 83.383,142.825 83.750 C 141.935 85.852,141.626 86.530,141.078 87.584 C 140.155 89.359,139.760 90.075,139.652 90.167 C 139.599 90.212,139.470 90.400,139.366 90.583 C 138.889 91.424,139.340 88.985,140.213 86.000 C 141.482 81.658,144.001 78.391,143.319 81.971 M226.500 83.628 C 225.898 83.819,225.000 84.899,225.000 85.433 C 225.000 86.397,225.995 86.444,226.895 85.522 C 227.834 84.561,227.568 83.289,226.500 83.628 M338.167 83.628 C 337.565 83.819,336.667 84.899,336.667 85.433 C 336.667 86.382,337.684 86.449,338.575 85.558 C 339.511 84.623,339.229 83.291,338.167 83.628 M56.571 89.720 C 57.057 90.076,54.690 91.885,53.292 92.228 C 52.738 92.363,52.727 92.288,53.199 91.609 C 54.188 90.189,55.900 89.230,56.571 89.720 M200.403 89.601 C 201.229 89.918,199.333 91.499,197.208 92.265 C 196.551 92.502,196.547 92.473,197.120 91.697 C 197.836 90.729,198.191 90.411,199.082 89.940 C 199.989 89.460,200.017 89.453,200.403 89.601 M296.070 89.601 C 296.895 89.918,295.000 91.499,292.875 92.265 C 292.218 92.502,292.214 92.473,292.787 91.697 C 293.503 90.729,293.858 90.411,294.749 89.940 C 295.656 89.460,295.684 89.453,296.070 89.601 M358.236 89.601 C 359.062 89.918,357.167 91.499,355.042 92.265 C 354.385 92.502,354.380 92.473,354.954 91.697 C 355.669 90.729,356.024 90.411,356.915 89.940 C 357.823 89.460,357.850 89.453,358.236 89.601 M255.719 90.201 C 255.970 90.330,255.985 90.400,255.809 90.613 C 255.692 90.754,255.518 91.002,255.423 91.165 C 252.937 95.413,248.833 97.992,248.833 95.308 C 248.833 92.373,253.381 89.001,255.719 90.201 M136.737 90.757 C 137.144 91.024,137.167 91.114,137.167 92.480 L 137.167 93.921 136.133 95.067 C 134.035 97.391,132.559 98.116,131.940 97.125 C 130.250 94.417,134.239 89.120,136.737 90.757 M104.821 91.272 C 105.323 91.910,105.300 91.966,103.770 93.868 C 100.628 97.773,99.000 98.618,99.000 96.342 C 99.000 92.975,103.250 89.274,104.821 91.272 M178.281 91.196 C 178.868 91.747,178.773 92.017,177.365 93.783 C 174.249 97.692,172.500 98.611,172.500 96.339 C 172.500 93.029,176.472 89.496,178.281 91.196 M280.812 99.109 C 279.158 101.102,274.908 102.243,273.513 101.069 C 272.673 100.362,273.018 99.741,274.500 99.293 C 276.298 98.749,281.230 98.605,280.812 99.109 M252.284 101.514 C 252.174 101.835,251.952 102.299,251.792 102.543 C 251.631 102.788,251.500 103.047,251.499 103.119 C 251.498 103.390,249.636 105.324,249.137 105.573 C 247.328 106.476,245.932 104.889,247.375 103.571 C 248.437 102.601,248.956 102.307,251.333 101.334 C 252.619 100.808,252.532 100.792,252.284 101.514 " stroke="none" fill="#040404" fill-rule="evenodd"></path><path id="path2" d="M230.883 63.500 C 230.883 64.004,230.915 64.210,230.953 63.958 C 230.991 63.706,230.991 63.294,230.953 63.042 C 230.915 62.790,230.883 62.996,230.883 63.500 " stroke="none" fill="#c42494" fill-rule="evenodd"></path><path id="path3" d="" stroke="none" fill="#941490" fill-rule="evenodd"></path><path id="path4" d="" stroke="none" fill="#941490" fill-rule="evenodd"></path></g></svg>