<svg width="5345" height="7928" viewBox="0 0 5345 7928" fill="none" xmlns="http://www.w3.org/2000/svg">
<path d="M46 41.9999C46 40.8953 46.8954 40 48 40H5296C5297.1 40 5298 40.8954 5298 42V7883C5298 7884.1 5297.1 7885 5296 7885H48C46.8955 7885 46 7884.1 46 7883V41.9999Z" fill="#F3EAE3"/>
<path d="M41.9982 4221L5298 829L5298 2709L41.9961 5973L41.9982 4221Z" fill="#F3C464"/>
<path d="M40.2112 6094.5L5304.83 2808L5304.83 3441L5304.83 3973.79L5304.83 5425.5L40.2112 7887.5L40.2112 6094.5Z" fill="#F3C464"/>
<path d="M59 7881.5L5298.01 5409L5298.01 7881.5L59 7881.5Z" fill="#E1B5AE"/>
<path d="M48 41H5296V39H48V41ZM5297 42V7883H5299V42H5297ZM5296 7884H48V7886H5296V7884ZM47 7883V41.9999H45V7883H47ZM48 7884C47.4477 7884 47 7883.55 47 7883H45C45 7884.66 46.3432 7886 48 7886V7884ZM5297 7883C5297 7883.55 5296.55 7884 5296 7884V7886C5297.66 7886 5299 7884.66 5299 7883H5297ZM5296 41C5296.55 41 5297 41.4477 5297 42H5299C5299 40.3431 5297.66 39 5296 39V41ZM48 39C46.3432 39 45 40.343 45 41.9999H47C47 41.4477 47.4477 41 48 41V39Z" fill="#F3C464"/>
<rect x="46" y="8" width="57.2656" height="26" rx="2" fill="#F3EAE3"/>
<rect x="46.5" y="8.5" width="56.2656" height="25" rx="1.5" stroke="black" stroke-opacity="0.14902"/>
<path d="M55.3438 18C55.2969 17.6042 55.1068 17.2969 54.7734 17.0781C54.4401 16.8594 54.0313 16.75 53.5469 16.75C53.1927 16.75 52.8828 16.8073 52.6172 16.9219C52.3542 17.0365 52.1484 17.194 52 17.3945C51.8542 17.5951 51.7813 17.8229 51.7813 18.0781C51.7813 18.2917 51.832 18.4753 51.9336 18.6289C52.0378 18.7799 52.1706 18.9062 52.332 19.0078C52.4935 19.1068 52.6628 19.1888 52.8398 19.2539C53.0169 19.3164 53.1797 19.3672 53.3281 19.4062L54.1406 19.625C54.349 19.6797 54.5807 19.7552 54.8359 19.8516C55.0938 19.9479 55.3398 20.0794 55.5742 20.2461C55.8112 20.4102 56.0065 20.6211 56.1602 20.8789C56.3138 21.1367 56.3906 21.4531 56.3906 21.8281C56.3906 22.2604 56.2773 22.651 56.0508 23C55.8268 23.349 55.4987 23.6263 55.0664 23.832C54.6367 24.0378 54.1146 24.1406 53.5 24.1406C52.9271 24.1406 52.431 24.0482 52.0117 23.8633C51.5951 23.6784 51.2669 23.4206 51.0273 23.0898C50.7904 22.7591 50.6563 22.375 50.625 21.9375H51.625C51.651 22.2396 51.7526 22.4896 51.9297 22.6875C52.1094 22.8828 52.3359 23.0286 52.6094 23.125C52.8854 23.2187 53.1823 23.2656 53.5 23.2656C53.8698 23.2656 54.2018 23.2057 54.4961 23.0859C54.7904 22.9635 55.0234 22.7943 55.1953 22.5781C55.3672 22.3594 55.4531 22.1042 55.4531 21.8125C55.4531 21.5469 55.3789 21.3307 55.2305 21.1641C55.082 20.9974 54.8867 20.862 54.6445 20.7578C54.4023 20.6536 54.1406 20.5625 53.8594 20.4844L52.875 20.2031C52.25 20.0234 51.7552 19.7669 51.3906 19.4336C51.026 19.1003 50.8438 18.6641 50.8438 18.125C50.8438 17.6771 50.9648 17.2865 51.207 16.9531C51.4518 16.6172 51.7799 16.3568 52.1914 16.1719C52.6055 15.9844 53.0677 15.8906 53.5781 15.8906C54.0938 15.8906 54.5521 15.9831 54.9531 16.168C55.3542 16.3503 55.6719 16.6003 55.9062 16.918C56.1432 17.2357 56.2682 17.5964 56.2813 18H55.3438ZM60.374 24.125C59.7959 24.125 59.2972 23.9974 58.8779 23.7422C58.4613 23.4844 58.1396 23.125 57.9131 22.6641C57.6891 22.2005 57.5771 21.6615 57.5771 21.0469C57.5771 20.4323 57.6891 19.8906 57.9131 19.4219C58.1396 18.9505 58.4548 18.5833 58.8584 18.3203C59.2646 18.0547 59.7386 17.9219 60.2803 17.9219C60.5928 17.9219 60.9014 17.974 61.2061 18.0781C61.5107 18.1823 61.7881 18.3516 62.0381 18.5859C62.2881 18.8177 62.4873 19.125 62.6357 19.5078C62.7842 19.8906 62.8584 20.362 62.8584 20.9219V21.3125H58.2334V20.5156H61.9209C61.9209 20.1771 61.8532 19.875 61.7178 19.6094C61.585 19.3437 61.3949 19.1341 61.1475 18.9805C60.9027 18.8268 60.6136 18.75 60.2803 18.75C59.9131 18.75 59.5954 18.8411 59.3271 19.0234C59.0615 19.2031 58.8571 19.4375 58.7139 19.7266C58.5706 20.0156 58.499 20.3255 58.499 20.6562V21.1875C58.499 21.6406 58.5771 22.0247 58.7334 22.3398C58.8923 22.6523 59.1123 22.8906 59.3936 23.0547C59.6748 23.2161 60.0016 23.2969 60.374 23.2969C60.6162 23.2969 60.835 23.263 61.0303 23.1953C61.2282 23.125 61.3988 23.0208 61.542 22.8828C61.6852 22.7422 61.7959 22.5677 61.874 22.3594L62.7646 22.6094C62.6709 22.9115 62.5133 23.1771 62.292 23.4062C62.0706 23.6328 61.7972 23.8099 61.4717 23.9375C61.1462 24.0625 60.7803 24.125 60.374 24.125ZM66.6982 24.125C66.1357 24.125 65.6514 23.9922 65.2451 23.7266C64.8389 23.4609 64.5264 23.0951 64.3076 22.6289C64.0889 22.1628 63.9795 21.6302 63.9795 21.0312C63.9795 20.4219 64.0915 19.8841 64.3154 19.418C64.542 18.9492 64.8571 18.5833 65.2607 18.3203C65.667 18.0547 66.141 17.9219 66.6826 17.9219C67.1045 17.9219 67.4847 18 67.8232 18.1562C68.1618 18.3125 68.4391 18.5312 68.6553 18.8125C68.8714 19.0937 69.0055 19.4219 69.0576 19.7969H68.1357C68.0654 19.5234 67.9092 19.2812 67.667 19.0703C67.4274 18.8568 67.1045 18.75 66.6982 18.75C66.3389 18.75 66.0238 18.8437 65.7529 19.0312C65.4847 19.2161 65.2751 19.4779 65.124 19.8164C64.9756 20.1523 64.9014 20.5469 64.9014 21C64.9014 21.4635 64.9743 21.8672 65.1201 22.2109C65.2686 22.5547 65.4769 22.8216 65.7451 23.0117C66.016 23.2018 66.3337 23.2969 66.6982 23.2969C66.9378 23.2969 67.1553 23.2552 67.3506 23.1719C67.5459 23.0885 67.7113 22.9688 67.8467 22.8125C67.9821 22.6562 68.0785 22.4687 68.1357 22.25H69.0576C69.0055 22.6042 68.8766 22.9232 68.6709 23.207C68.4678 23.4883 68.1982 23.7122 67.8623 23.8789C67.529 24.043 67.141 24.125 66.6982 24.125ZM73.0146 18V18.7812H69.9053V18H73.0146ZM70.8115 16.5625H71.7334V22.2812C71.7334 22.5417 71.7712 22.737 71.8467 22.8672C71.9248 22.9948 72.0238 23.0807 72.1436 23.125C72.266 23.1667 72.3949 23.1875 72.5303 23.1875C72.6318 23.1875 72.7152 23.1823 72.7803 23.1719C72.8454 23.1589 72.8975 23.1484 72.9365 23.1406L73.124 23.9687C73.0615 23.9922 72.9743 24.0156 72.8623 24.0391C72.7503 24.0651 72.6084 24.0781 72.4365 24.0781C72.1761 24.0781 71.9209 24.0221 71.6709 23.9102C71.4235 23.7982 71.2178 23.6276 71.0537 23.3984C70.8923 23.1693 70.8115 22.8802 70.8115 22.5312V16.5625ZM74.4014 24V18H75.3232V24H74.4014ZM74.8701 17C74.6904 17 74.5355 16.9388 74.4053 16.8164C74.2777 16.694 74.2139 16.5469 74.2139 16.375C74.2139 16.2031 74.2777 16.056 74.4053 15.9336C74.5355 15.8112 74.6904 15.75 74.8701 15.75C75.0498 15.75 75.2035 15.8112 75.3311 15.9336C75.4613 16.056 75.5264 16.2031 75.5264 16.375C75.5264 16.5469 75.4613 16.694 75.3311 16.8164C75.2035 16.9388 75.0498 17 74.8701 17ZM79.4492 24.125C78.9076 24.125 78.4323 23.9961 78.0234 23.7383C77.6172 23.4805 77.2995 23.1198 77.0703 22.6562C76.8438 22.1927 76.7305 21.651 76.7305 21.0312C76.7305 20.4062 76.8438 19.8607 77.0703 19.3945C77.2995 18.9284 77.6172 18.5664 78.0234 18.3086C78.4323 18.0508 78.9076 17.9219 79.4492 17.9219C79.9909 17.9219 80.4648 18.0508 80.8711 18.3086C81.2799 18.5664 81.5977 18.9284 81.8242 19.3945C82.0534 19.8607 82.168 20.4062 82.168 21.0312C82.168 21.651 82.0534 22.1927 81.8242 22.6562C81.5977 23.1198 81.2799 23.4805 80.8711 23.7383C80.4648 23.9961 79.9909 24.125 79.4492 24.125ZM79.4492 23.2969C79.8607 23.2969 80.1992 23.1914 80.4648 22.9805C80.7305 22.7695 80.9271 22.4922 81.0547 22.1484C81.1823 21.8047 81.2461 21.4323 81.2461 21.0312C81.2461 20.6302 81.1823 20.2565 81.0547 19.9102C80.9271 19.5638 80.7305 19.2839 80.4648 19.0703C80.1992 18.8568 79.8607 18.75 79.4492 18.75C79.0378 18.75 78.6992 18.8568 78.4336 19.0703C78.168 19.2839 77.9714 19.5638 77.8438 19.9102C77.7161 20.2565 77.6523 20.6302 77.6523 21.0312C77.6523 21.4323 77.7161 21.8047 77.8438 22.1484C77.9714 22.4922 78.168 22.7695 78.4336 22.9805C78.6992 23.1914 79.0378 23.2969 79.4492 23.2969ZM84.4971 20.3906V24H83.5752V18H84.4658V18.9375H84.5439C84.6846 18.6328 84.8981 18.388 85.1846 18.2031C85.471 18.0156 85.8408 17.9219 86.2939 17.9219C86.7002 17.9219 87.0557 18.0052 87.3604 18.1719C87.665 18.3359 87.902 18.5859 88.0713 18.9219C88.2406 19.2552 88.3252 19.6771 88.3252 20.1875V24H87.4033V20.25C87.4033 19.7786 87.2809 19.4115 87.0361 19.1484C86.7913 18.8828 86.4554 18.75 86.0283 18.75C85.734 18.75 85.471 18.8138 85.2393 18.9414C85.0101 19.069 84.8291 19.2552 84.6963 19.5C84.5635 19.7448 84.4971 20.0417 84.4971 20.3906ZM95.791 24.1094C95.2754 24.1094 94.8158 24.0208 94.4121 23.8437C94.0111 23.6667 93.6921 23.4206 93.4551 23.1055C93.2207 22.7878 93.0931 22.4193 93.0723 22H94.0566C94.0775 22.2578 94.166 22.4805 94.3223 22.668C94.4785 22.8529 94.6829 22.9961 94.9355 23.0977C95.1882 23.1992 95.4681 23.25 95.7754 23.25C96.1191 23.25 96.4238 23.1901 96.6895 23.0703C96.9551 22.9505 97.1634 22.7839 97.3145 22.5703C97.4655 22.3568 97.541 22.1094 97.541 21.8281C97.541 21.5339 97.4681 21.2747 97.3223 21.0508C97.1764 20.8242 96.9629 20.6471 96.6816 20.5195C96.4004 20.3919 96.0566 20.3281 95.6504 20.3281H95.0098V19.4687H95.6504C95.9681 19.4687 96.2467 19.4115 96.4863 19.2969C96.7285 19.1823 96.9173 19.0208 97.0527 18.8125C97.1908 18.6042 97.2598 18.3594 97.2598 18.0781C97.2598 17.8073 97.1999 17.5716 97.0801 17.3711C96.9603 17.1706 96.791 17.0143 96.5723 16.9023C96.3561 16.7904 96.1009 16.7344 95.8066 16.7344C95.5306 16.7344 95.2702 16.7852 95.0254 16.8867C94.7832 16.9857 94.5853 17.1302 94.4316 17.3203C94.278 17.5078 94.1947 17.7344 94.1816 18H93.2441C93.2598 17.5807 93.3861 17.2135 93.623 16.8984C93.86 16.5807 94.1699 16.3333 94.5527 16.1562C94.9382 15.9792 95.3613 15.8906 95.8223 15.8906C96.3171 15.8906 96.7415 15.9909 97.0957 16.1914C97.4499 16.3893 97.722 16.651 97.9121 16.9766C98.1022 17.3021 98.1973 17.6536 98.1973 18.0313C98.1973 18.4818 98.0788 18.8659 97.8418 19.1836C97.6074 19.5013 97.2884 19.7214 96.8848 19.8438V19.9062C97.39 19.9896 97.7845 20.2044 98.0684 20.5508C98.3522 20.8945 98.4941 21.3203 98.4941 21.8281C98.4941 22.263 98.3757 22.6536 98.1387 23C97.9043 23.3437 97.584 23.6146 97.1777 23.8125C96.7715 24.0104 96.3092 24.1094 95.791 24.1094Z" fill="black"/>
</svg>
